<svg width="150" height="150" viewBox="0 0 150 150" fill="none" xmlns="http://www.w3.org/2000/svg">
<g clip-path="url(#clip0_3777_547)">
<rect width="150" height="150" rx="24" fill="#FFE6C7"/>
<rect x="6.5" y="6.5" width="137" height="137" rx="23.5" stroke="black" stroke-dasharray="4 4"/>
<g clip-path="url(#clip1_3777_547)">
<rect x="12" y="12" width="126" height="126" rx="24" fill="#FFBF9B"/>
<path d="M101.926 65.639C101.879 65.7072 101.055 66.8911 99.8801 68.3778C99.4209 68.9589 98.9089 69.5854 98.367 70.211C95.3599 73.68 93.0912 75.235 90.9734 75.235C90.7124 75.235 90.4551 75.2113 90.1996 75.1649C89.3948 75.0213 87.448 74.3911 86.7542 71.6777C85.8003 67.935 87.0743 63.5267 88.3055 59.262C88.3255 59.1938 88.3437 59.1256 88.3646 59.0584C89.1111 56.4759 89.8631 53.8289 89.8631 51.9648H95.9291C95.9291 54.7391 95.0171 57.8953 94.1333 60.947C93.4949 63.1602 92.7984 65.5681 92.5674 67.5631C93.3303 66.7766 94.2051 65.7763 95.0707 64.6879C95.7127 63.8831 96.3501 63.0311 96.9366 62.1864L101.926 65.639Z" fill="#454933"/>
<path d="M94.0396 65.4291L94.8843 64.5371L100.024 68.4326L99.109 69.5592L94.0396 65.4291Z" fill="#8E935F"/>
<path d="M101.926 65.6361C101.878 65.7043 101.054 66.8882 99.8796 68.3749L95.0703 64.6831C95.7123 63.8784 96.3497 63.0264 96.9362 62.1816L101.926 65.6361Z" fill="#FF6000"/>
<path d="M90.4102 51.9618C90.4102 54.7543 89.5282 56.9567 88.3642 59.0553C87.9214 59.8573 87.4358 60.6439 86.9412 61.4414C84.436 65.5005 81.3726 70.4635 80.8561 81.4898C80.8043 82.551 80.7788 83.6667 80.7788 84.8451H74.7119C74.7119 83.6758 74.7374 82.5582 74.7892 81.4898C75.3866 68.7213 79.3557 62.9008 81.7781 58.2552C83.1958 55.5327 83.815 54.5843 84.837 51.9609L90.4102 51.9618Z" fill="#454933"/>
<path d="M74.624 79.8027V81.5231L81.2265 81.5395L81.1328 80.3347L74.624 79.8027Z" fill="#8E935F"/>
<path d="M80.8571 81.4941C80.8053 82.5553 80.7798 83.671 80.7798 84.8495H74.7129C74.7129 83.6801 74.7384 82.5626 74.7902 81.4941H80.8571Z" fill="#FF6000"/>
<path d="M80.7762 84.8438H74.702C74.702 85.2666 72.1678 85.3602 72.0269 86.1104H80.9363C80.9363 86.1104 81.0499 85.403 80.7762 84.8438Z" fill="#3F3C39"/>
<path d="M96.9653 62.1626L101.942 65.6461C102.185 65.2997 104.314 66.6764 104.86 66.1426L97.5609 61.0332C97.5609 61.0332 97.0617 61.5479 96.9653 62.1626Z" fill="#3F3C39"/>
<path d="M88.4307 58.9095L89.4164 54.873" stroke="#666B46" stroke-width="0.2022" stroke-miterlimit="10" stroke-linecap="round"/>
<path d="M88.0313 57.2695L84.6987 58.3489" stroke="#666B46" stroke-width="0.2022" stroke-miterlimit="10" stroke-linecap="round"/>
<path d="M87.7269 58.2051L82.8457 61.6314" stroke="#666B46" stroke-width="0.2022" stroke-miterlimit="10" stroke-linecap="round"/>
<path d="M76.2041 22.271C76.0468 22.2255 75.9195 22.0973 75.8831 21.9263C75.7603 21.358 75.8767 20.7761 76.2104 20.2887C76.545 19.7995 77.0606 19.4567 77.5898 19.373C77.8408 19.333 78.0763 19.5039 78.1154 19.7549C78.1554 20.0059 77.9845 20.2414 77.7335 20.2805C77.458 20.3241 77.1579 20.5315 76.9679 20.8079C76.8333 21.0043 76.6924 21.3235 76.7806 21.7327C76.8342 21.9809 76.676 22.2255 76.4278 22.2792C76.3523 22.2955 76.275 22.2919 76.2041 22.271Z" fill="#FF6000"/>
<path d="M76.9145 22.8374C76.7571 22.7919 76.6298 22.6637 76.5926 22.4928C76.4698 21.9244 76.5862 21.3425 76.9199 20.8551C77.2545 20.3659 77.7701 20.0231 78.2993 19.9394C78.5503 19.8994 78.7858 20.0704 78.8249 20.3213C78.8649 20.5723 78.694 20.8078 78.443 20.8469C78.1675 20.8905 77.8674 21.0979 77.6774 21.3743C77.5428 21.5707 77.4018 21.8899 77.49 22.2991C77.5437 22.5473 77.3855 22.7919 77.1372 22.8455C77.0627 22.8619 76.9854 22.8583 76.9145 22.8374Z" fill="#FF6000"/>
<path d="M77.6098 23.3979C77.4525 23.3524 77.3252 23.2242 77.2888 23.0533C77.1661 22.485 77.2825 21.903 77.6162 21.4156C77.9508 20.9264 78.4673 20.5836 78.9956 20.4999C79.2466 20.4599 79.4821 20.6309 79.5212 20.8818C79.5612 21.1328 79.3903 21.3683 79.1393 21.4074C78.8638 21.4511 78.5628 21.6584 78.3736 21.9348C78.2391 22.1312 78.0981 22.4504 78.1863 22.8596C78.24 23.1078 78.0818 23.3524 77.8344 23.4061C77.7581 23.4225 77.6808 23.4188 77.6098 23.3979Z" fill="#FF6000"/>
<path d="M78.3056 23.9585C78.1483 23.913 78.021 23.7848 77.9837 23.6138C77.8609 23.0455 77.9773 22.4645 78.311 21.9762C78.6456 21.487 79.1621 21.1442 79.6904 21.0605C79.9405 21.0205 80.1769 21.1914 80.2169 21.4424C80.2569 21.6934 80.086 21.9289 79.835 21.9689C79.5595 22.0125 79.2585 22.2199 79.0694 22.4963C78.9348 22.6927 78.7939 23.0119 78.8821 23.4211C78.9357 23.6693 78.7775 23.9139 78.5293 23.9675C78.4538 23.9821 78.3765 23.9785 78.3056 23.9585Z" fill="#FF6000"/>
<path d="M79.4676 25.1973C79.4148 25.1818 79.3639 25.1572 79.3185 25.1218C79.1166 24.9681 79.0766 24.6798 79.2303 24.478C79.7431 23.8024 79.5731 23.0113 79.5713 23.004C79.5121 22.7576 79.6649 22.5093 79.9113 22.4502C80.1587 22.3911 80.406 22.5439 80.4651 22.7903C80.4769 22.8394 80.7433 24.0042 79.9622 25.0336C79.844 25.19 79.6449 25.2491 79.4676 25.1973Z" fill="#FF6000"/>
<path d="M75.7676 23.1628C76.1204 22.7273 75.8112 22.0926 75.8394 21.6061C75.8676 21.1196 78.0463 22.4954 78.0463 22.4954C78.0463 22.4954 78.8047 22.9246 78.8829 23.4174C78.9611 23.9103 79.4412 24.3067 79.5158 23.9139C79.5912 23.5211 80.6997 23.5902 80.305 24.4359C79.9104 25.2806 79.1657 25.9762 79.1657 25.9762L75.7676 23.1628Z" fill="#FF6000"/>
<path d="M77.797 20.1738C77.115 20.4948 76.6749 20.9231 76.8613 21.9406" stroke="#3F3C39" stroke-width="0.2022" stroke-miterlimit="10" stroke-linecap="round" stroke-linejoin="round"/>
<path d="M78.5719 20.6855C77.8899 21.0065 77.4498 21.4348 77.6362 22.4523" stroke="#3F3C39" stroke-width="0.2022" stroke-miterlimit="10" stroke-linecap="round" stroke-linejoin="round"/>
<path d="M79.3614 21.2559C78.6795 21.5768 78.2394 22.0051 78.4258 23.0226" stroke="#3F3C39" stroke-width="0.2022" stroke-miterlimit="10" stroke-linecap="round" stroke-linejoin="round"/>
<path d="M76.6133 22.2012C76.8897 22.3458 77.1671 22.4903 77.4207 22.6713C77.6744 22.8522 77.9054 23.0732 78.0627 23.3414C78.2728 23.6988 78.3428 24.1362 78.2546 24.5417" stroke="#3F3C39" stroke-width="0.2022" stroke-miterlimit="10" stroke-linecap="round" stroke-linejoin="round"/>
<path d="M98.0235 16.6145C98.1699 16.5427 98.2735 16.3945 98.2808 16.2199C98.3026 15.6388 98.088 15.086 97.6743 14.6631C97.2597 14.2394 96.6922 13.9911 96.1576 14.0002C95.9039 14.0048 95.7011 14.213 95.7056 14.4676C95.7093 14.7213 95.9184 14.9232 96.173 14.9195C96.4522 14.915 96.7841 15.0669 97.0178 15.306C97.1842 15.4761 97.3788 15.7661 97.3624 16.1844C97.3524 16.4381 97.5506 16.6518 97.8043 16.6618C97.8825 16.6636 97.958 16.6463 98.0235 16.6145Z" fill="#FF6000"/>
<path d="M97.4234 17.3011C97.5698 17.2293 97.6734 17.081 97.6807 16.9065C97.7025 16.3254 97.4879 15.7725 97.0742 15.3506C96.6596 14.9269 96.0922 14.6786 95.5575 14.6877C95.3038 14.6923 95.101 14.9005 95.1055 15.1551C95.1101 15.4088 95.3183 15.6107 95.5729 15.6071C95.8521 15.6025 96.184 15.7544 96.4177 15.9935C96.5841 16.1636 96.7787 16.4536 96.7623 16.8719C96.7523 17.1256 96.9505 17.3393 97.2042 17.3484C97.2815 17.3502 97.357 17.3338 97.4234 17.3011Z" fill="#FF6000"/>
<path d="M96.834 17.9691C96.9804 17.8972 97.0841 17.749 97.0913 17.5744C97.1141 16.9934 96.8986 16.4405 96.4857 16.0186C96.0711 15.5949 95.5037 15.3466 94.9681 15.3557C94.7144 15.3603 94.5116 15.5685 94.5162 15.8231C94.5207 16.0768 94.7289 16.2796 94.9836 16.275C95.2627 16.2705 95.5946 16.4223 95.8283 16.6615C95.9947 16.8315 96.1893 17.1216 96.1729 17.5399C96.1629 17.7936 96.3612 18.0073 96.6149 18.0173C96.6931 18.0182 96.7685 18.0009 96.834 17.9691Z" fill="#FF6000"/>
<path d="M96.246 18.6398C96.3924 18.568 96.4961 18.4198 96.5034 18.2452C96.5261 17.6641 96.3106 17.1113 95.8969 16.6894C95.4822 16.2656 94.9148 16.0174 94.3793 16.0256C94.1256 16.0292 93.9228 16.2384 93.9273 16.4921C93.9319 16.7458 94.1401 16.9485 94.3947 16.944C94.6739 16.9394 95.0058 17.0913 95.2404 17.3304C95.4068 17.5005 95.6014 17.7906 95.585 18.2088C95.575 18.4625 95.7732 18.6762 96.0269 18.6862C96.1051 18.6899 96.1797 18.6726 96.246 18.6398Z" fill="#FF6000"/>
<path d="M95.3167 20.0633C95.3658 20.0387 95.4113 20.006 95.4513 19.9633C95.624 19.7768 95.6131 19.4868 95.4267 19.314C94.8047 18.7366 94.8348 17.9291 94.8357 17.9209C94.8511 17.6672 94.6584 17.4499 94.4047 17.4345C94.151 17.419 93.9336 17.6118 93.9182 17.8655C93.9154 17.9164 93.8545 19.1094 94.802 19.9878C94.9457 20.1206 95.1512 20.1442 95.3167 20.0633Z" fill="#FF6000"/>
<path d="M98.6092 17.4169C98.1863 17.0486 98.3809 16.3703 98.2691 15.8965C98.1572 15.4228 96.2495 17.155 96.2495 17.155C96.2495 17.155 95.5775 17.7088 95.5857 18.208C95.5939 18.7063 95.1902 19.18 95.0483 18.8072C94.9065 18.4335 93.8262 18.6935 94.3609 19.4573C94.8955 20.2212 95.7494 20.7768 95.7494 20.7768L98.6092 17.4169Z" fill="#FF6000"/>
<path d="M96.0933 14.8281C96.8198 15.0264 97.3281 15.3719 97.3208 16.4067" stroke="#3F3C39" stroke-width="0.2022" stroke-miterlimit="10" stroke-linecap="round" stroke-linejoin="round"/>
<path d="M95.4185 15.4668C96.145 15.665 96.6533 16.0106 96.646 17.0454" stroke="#3F3C39" stroke-width="0.2022" stroke-miterlimit="10" stroke-linecap="round" stroke-linejoin="round"/>
<path d="M94.7393 16.1641C95.4667 16.3623 95.9741 16.7078 95.9668 17.7426" stroke="#3F3C39" stroke-width="0.2022" stroke-miterlimit="10" stroke-linecap="round" stroke-linejoin="round"/>
<path d="M97.6091 16.6191C97.3617 16.8092 97.1135 16.9992 96.8953 17.222C96.677 17.4448 96.4879 17.7012 96.3788 17.994C96.2342 18.3823 96.2406 18.8251 96.3979 19.2098" stroke="#3F3C39" stroke-width="0.2022" stroke-miterlimit="10" stroke-linecap="round" stroke-linejoin="round"/>
<path d="M85.8991 42.2053C81.1616 42.2053 76.9479 40.0475 74.6219 36.243C72.084 32.092 72.5259 27.079 75.7767 23.1599L79.1729 25.9769C77.1334 28.4348 76.8397 31.4128 78.3864 33.9415C79.8295 36.3021 83.3512 38.6499 88.5206 37.4979C94.3657 36.1948 98.5712 33.0641 99.4951 29.3268C100.201 26.4743 98.8686 23.4418 95.7451 20.7884L98.6021 17.4258C103.069 21.2203 104.906 25.8233 103.778 30.3862C102.429 35.8411 97.0836 40.1094 89.48 41.8034C88.267 42.0744 87.0676 42.2053 85.8991 42.2053Z" fill="#A85151"/>
<path d="M84.8389 51.9629L84.4761 52.8631L89.2754 52.9777L89.6273 52.1802L89.801 52.9777L95.8834 53.0704L95.9288 51.9629H84.8389Z" fill="white"/>
<path d="M95.9284 51.9608H84.8375C85.1649 50.996 85.3431 49.9658 85.4204 48.931C85.4368 48.7346 85.4477 48.5373 85.455 48.3409C85.4823 47.6462 85.4659 46.9551 85.4222 46.2822C85.3931 45.8666 85.354 45.4584 85.3067 45.0619C84.9594 42.1576 84.1729 39.8888 84.1729 39.8888L95.1636 37.3828C95.6728 40.0635 95.9266 42.5849 96.0384 44.7527C96.0566 45.0837 96.0693 45.4075 96.0811 45.7193C96.0957 46.144 96.1048 46.5504 96.1102 46.9396C96.1121 47.0442 96.1139 47.147 96.1139 47.2488C96.1366 50.1395 95.9284 51.9608 95.9284 51.9608Z" fill="#A85151"/>
<path d="M96.0815 45.7236L93.7082 42.5965L92.3406 46.5338L90.0355 43.2876L88.6861 46.9866L86.3074 44.0196L85.4226 46.2865C85.3935 45.8709 85.3544 45.4626 85.3071 45.0662L86.1419 42.932L88.5043 45.8791L89.8773 42.1146L92.1715 45.3444L93.5246 41.4453L96.0397 44.7579C96.0579 45.0871 96.0706 45.4108 96.0815 45.7236Z" fill="#CE6A6A"/>
<path d="M96.1144 47.2526L93.9984 44.4638L92.6363 48.3902L90.3348 45.1494L88.9763 48.8685L86.6048 45.9087L85.4209 48.9349C85.4373 48.7385 85.4482 48.5411 85.4555 48.3447L86.5475 45.5468L88.9154 48.4993L90.2812 44.7566L92.579 47.9937L93.9375 44.0801L96.1107 46.9444C96.1126 47.0481 96.1144 47.1517 96.1144 47.2526Z" fill="#CE6A6A"/>
<path d="M91.8328 36.5C90.6052 36.9719 89.3467 37.3393 88.0537 37.593C89.1322 39.4834 91.9974 38.7769 91.8328 36.5Z" fill="#FF6000"/>
<path d="M87.4041 32.6328C87.3032 33.7949 87.145 35.3526 87.8824 35.7781C88.117 35.9136 88.5071 35.8854 88.5071 35.8854L88.7717 37.8204L91.5269 37.5013L90.8804 33.0993L89.8474 31.9045C89.8474 31.9045 87.5005 31.579 87.4041 32.6328Z" fill="#FF6000"/>
<path d="M91.0581 34.3154L90.1743 33.7026C90.738 33.3898 90.7353 32.9015 90.3952 32.7742C90.0552 32.6469 89.8542 33.0679 89.8542 33.0679C89.6069 32.8987 89.8969 32.6823 89.8151 32.3923C89.7333 32.1022 88.0129 31.9812 87.4473 32.4504C87.6046 31.7994 89.7951 31.172 90.5762 31.8358C90.9954 32.1922 91.0581 34.3154 91.0581 34.3154Z" fill="#3F3C39"/>
<path d="M86.1846 32.9593L92.0678 33.0338L91.0685 32.2127L90.7357 31.1643C89.2162 30.7578 87.6886 30.8588 87.6886 30.8588L87.2458 32.2045L86.1846 32.9593Z" fill="#666B46"/>
<path d="M87.4941 32.1914L90.8813 32.1987" stroke="#FFE6C7" stroke-width="0.2022" stroke-miterlimit="10" stroke-linecap="round"/>
<path d="M87.353 33.5132C87.3794 33.4622 87.4349 33.4277 87.4912 33.4259C87.5485 33.424 87.6058 33.4559 87.6349 33.505" stroke="#3F3C39" stroke-width="0.2022" stroke-miterlimit="10" stroke-linecap="round" stroke-linejoin="round"/>
<path d="M88.5425 33.5153C88.5879 33.448 88.6407 33.3753 88.7189 33.3534C88.7689 33.3407 88.8225 33.3498 88.868 33.3725C88.9144 33.3953 88.9535 33.4289 88.9899 33.4662" stroke="#3F3C39" stroke-width="0.2022" stroke-miterlimit="10" stroke-linecap="round" stroke-linejoin="round"/>
<path d="M88.0542 33.5645C88.0233 33.7754 87.9924 33.9864 87.9624 34.1973" stroke="#3F3C39" stroke-width="0.2022" stroke-miterlimit="10" stroke-linecap="round" stroke-linejoin="round"/>
<path d="M88.6563 34.2135C88.669 34.2025 88.6863 34.1907 88.7017 34.1971C88.7199 34.2044 88.7199 34.2289 88.7181 34.2489C88.7054 34.3635 88.6872 34.4835 88.6181 34.5763C88.5645 34.649 88.4817 34.699 88.3926 34.7136C88.3253 34.7245 88.2517 34.7154 88.1907 34.6854C88.1525 34.6663 88.1443 34.6572 88.1725 34.6263C88.2007 34.5963 88.238 34.5699 88.2698 34.5435C88.398 34.4344 88.5272 34.3244 88.6563 34.2135Z" stroke="#3F3C39" stroke-width="0.2022" stroke-miterlimit="10" stroke-linecap="round" stroke-linejoin="round"/>
<path d="M89.2479 35.6387C89.2479 35.6387 88.8396 35.8524 88.5068 35.8815L88.5841 36.4434L89.2479 35.6387Z" fill="#3F3C39"/>
<path d="M94.249 36.4512C94.7319 37.4241 95.132 38.438 95.4429 39.4782" stroke="#843D3D" stroke-width="0.2022" stroke-miterlimit="10" stroke-linecap="round"/>
<path d="M84.8086 42.0312L83.9639 38.9805" stroke="#843D3D" stroke-width="0.2022" stroke-miterlimit="10" stroke-linecap="round"/>
<path d="M56.5357 84.8345H50.4688C50.4688 80.448 53.2812 77.571 56.2583 74.5248C60.5066 70.1792 65.3214 65.2535 65.3214 53.7734H71.3874C71.3874 67.7259 65.1504 74.1065 60.5966 78.7649C58.0024 81.4191 56.5357 83.0095 56.5357 84.8345Z" fill="#A85151"/>
<path d="M68.2238 60.8086C67.2209 70.6028 53.914 78.8511 53.9768 84.0451" stroke="#CE6A6A" stroke-width="0.2022" stroke-miterlimit="10"/>
<path d="M50.8789 84.1387H56.0738" stroke="#CE6A6A" stroke-width="0.2022" stroke-miterlimit="10"/>
<path d="M50.4607 84.8359H56.5348C56.5348 85.2588 59.0691 85.3524 59.21 86.1026H50.3006C50.3006 86.1026 50.187 85.3952 50.4607 84.8359Z" fill="#666B46"/>
<path d="M64.7925 59.8976L70.4711 62.3754L70.7903 60.8214L64.8498 59.582L64.7925 59.8976Z" fill="#3F3C39"/>
<path d="M74.1106 77.6175H68.0446C68.0446 74.1421 70.8425 71.3732 73.5477 68.6944C75.2999 66.9604 77.9478 64.3388 77.5077 63.194C77.4323 62.9976 77.0249 62.673 76.1056 62.3484C74.8335 61.8992 73.0748 61.6246 71.3735 61.3581C69.1712 61.0135 66.8934 60.658 65.0202 59.8559C61.2138 58.2283 60.6455 55.3476 60.6455 53.7754H66.7115C66.7115 53.8227 66.7151 53.8536 66.7179 53.8709C66.7779 53.9354 67.0925 54.2264 68.18 54.5529C69.3249 54.8966 70.7752 55.1239 72.311 55.364C76.6439 56.0414 81.556 56.8098 83.1718 61.0189C85.0313 65.8628 81.0304 69.8229 77.8151 73.0054C76.4293 74.3776 74.1106 76.6727 74.1106 77.6175Z" fill="#A85151"/>
<path d="M65.8852 54.3242C65.9125 54.7489 65.7379 55.1826 65.4232 55.469C65.1086 55.7555 64.6603 55.8891 64.2402 55.8228" stroke="#CE6A6A" stroke-width="0.2022" stroke-miterlimit="10"/>
<path d="M65.4233 55.4668C65.4233 55.4668 80.2605 57.4191 81.3872 62.2066C82.3437 66.2739 70.9992 71.938 70.31 76.7883" stroke="#CE6A6A" stroke-width="0.2022" stroke-miterlimit="10"/>
<path d="M68.542 76.8379H74.0133" stroke="#CE6A6A" stroke-width="0.2022" stroke-miterlimit="10"/>
<path d="M68.0493 77.6172H74.1235C74.1235 78.04 76.6577 78.1337 76.7987 78.8839H67.8884C67.8884 78.8839 67.7756 78.1764 68.0493 77.6172Z" fill="#666B46"/>
<path d="M69.8659 40.564L65.5185 41.3124C65.1329 39.0682 64.4282 36.7722 63.5789 34.5735C60.8083 27.4017 56.47 21.253 56.4136 21.1721L60.0072 18.6133C60.2645 18.9734 65.0629 25.7695 67.9982 33.7833C68.8074 35.9884 69.4731 38.2844 69.8659 40.564Z" fill="#747EF7"/>
<path d="M69.8661 40.5639L65.5187 41.3123C65.1331 39.0681 64.4284 36.7721 63.5791 34.5734L67.9983 33.7832C68.8076 35.9883 69.4732 38.2843 69.8661 40.5639Z" fill="#FF6000"/>
<path d="M67.0099 37.5527C67.2272 38.162 67.0108 38.8722 66.5816 39.3559C66.1542 39.8378 65.5186 40.1424 65.2213 40.7135C64.813 41.5 65.1958 42.4403 65.2959 43.3205C65.4541 44.7181 64.8021 46.1784 63.6564 46.9941C62.7752 47.6215 61.4849 47.8315 60.6357 47.1605C59.8427 46.5331 59.6418 45.3328 58.7925 44.7836C57.9277 44.2252 56.6802 44.5371 55.8673 43.907C55.1334 43.3378 55.0771 42.2348 55.3253 41.34C55.5326 40.5944 55.9418 39.8587 56.622 39.4914C57.183 39.1886 57.8486 39.174 58.477 39.064C59.1053 38.9549 59.78 38.6894 60.0492 38.111C60.2347 37.7119 60.1865 37.2481 60.2565 36.8135C60.4474 35.6195 61.6323 34.6975 62.8416 34.7211C63.8164 34.7402 64.6584 35.314 65.1958 36.0988C65.1958 36.0988 66.5016 36.1242 67.0099 37.5527Z" fill="#3F3C39"/>
<path d="M59.6346 17.6885C59.7947 17.6539 59.9302 17.5348 59.9793 17.3666C60.1402 16.8073 60.0638 16.2199 59.7647 15.7098C59.4637 15.1988 58.9727 14.8214 58.4516 14.7014C58.2043 14.6441 57.9579 14.7987 57.9006 15.046C57.8433 15.2933 57.9979 15.5398 58.2452 15.5971C58.5171 15.6598 58.8026 15.8862 58.9727 16.1754C59.0936 16.38 59.2127 16.7091 59.0963 17.111C59.0263 17.3547 59.1664 17.6094 59.4101 17.6803C59.4864 17.703 59.5628 17.7048 59.6346 17.6885Z" fill="#747EF7"/>
<path d="M58.8871 18.2096C59.0471 18.1751 59.1826 18.056 59.2317 17.8878C59.3927 17.3285 59.3172 16.7411 59.0171 16.231C58.7161 15.72 58.2251 15.3426 57.7041 15.2226C57.4567 15.1662 57.2103 15.3199 57.153 15.5672C57.0958 15.8145 57.2503 16.061 57.4977 16.1182C57.7696 16.181 58.0551 16.4083 58.2251 16.6965C58.3451 16.9011 58.4651 17.2303 58.3488 17.6322C58.2787 17.8759 58.4188 18.1306 58.6634 18.2015C58.7389 18.2233 58.8152 18.2251 58.8871 18.2096Z" fill="#747EF7"/>
<path d="M58.1556 18.7168C58.3156 18.6823 58.4511 18.5632 58.5002 18.3949C58.6611 17.8366 58.5857 17.2483 58.2856 16.7391C57.9846 16.2281 57.4936 15.8507 56.9717 15.7307C56.7243 15.6734 56.4779 15.828 56.4206 16.0753C56.3633 16.3226 56.5179 16.569 56.7652 16.6263C57.0371 16.6891 57.3226 16.9155 57.4927 17.2047C57.6136 17.4093 57.7327 17.7375 57.6163 18.1394C57.5463 18.3831 57.6864 18.6377 57.93 18.7087C58.0064 18.7314 58.0837 18.7323 58.1556 18.7168Z" fill="#747EF7"/>
<path d="M57.4232 19.2247C57.5833 19.1901 57.7188 19.071 57.7679 18.9028C57.9288 18.3444 57.8524 17.7561 57.5532 17.2469C57.2523 16.7359 56.7612 16.3585 56.2402 16.2385C55.9929 16.1812 55.7465 16.3358 55.6892 16.5831C55.6319 16.8304 55.7865 17.0769 56.0338 17.1341C56.3057 17.1969 56.5912 17.4242 56.7613 17.7125C56.8813 17.9171 57.0013 18.2453 56.8849 18.6482C56.8149 18.8918 56.9549 19.1465 57.1986 19.2174C57.2741 19.2392 57.3514 19.2401 57.4232 19.2247Z" fill="#747EF7"/>
<path d="M56.1785 20.3874C56.2321 20.3755 56.284 20.3546 56.3331 20.3228C56.5449 20.1837 56.604 19.899 56.4649 19.6863C55.9993 18.977 56.223 18.1996 56.2258 18.1923C56.3012 17.9504 56.1666 17.6922 55.9239 17.6167C55.6811 17.5412 55.4237 17.6758 55.3483 17.9177C55.3337 17.9659 54.9873 19.1098 55.6965 20.19C55.8038 20.3537 55.9984 20.4265 56.1785 20.3874Z" fill="#747EF7"/>
<path d="M60.0102 18.6114C59.6874 18.1532 60.0402 17.5403 60.0448 17.0538C60.0502 16.5673 57.7815 17.7904 57.7815 17.7904C57.7815 17.7904 56.9959 18.1668 56.884 18.6524C56.7722 19.1379 56.2657 19.5008 56.2184 19.1043C56.1702 18.7078 55.059 18.7006 55.3946 19.5708C55.7301 20.441 56.4257 21.1848 56.4257 21.1848L60.0102 18.6114Z" fill="#747EF7"/>
<path d="M58.1895 15.4902C58.8478 15.8576 59.257 16.315 59.0015 17.317" stroke="#3F3C39" stroke-width="0.2022" stroke-miterlimit="10" stroke-linecap="round" stroke-linejoin="round"/>
<path d="M57.3813 15.9492C58.0397 16.3166 58.4489 16.774 58.1934 17.776" stroke="#3F3C39" stroke-width="0.2022" stroke-miterlimit="10" stroke-linecap="round" stroke-linejoin="round"/>
<path d="M56.5547 16.4648C57.213 16.8322 57.6222 17.2896 57.3667 18.2916" stroke="#3F3C39" stroke-width="0.2022" stroke-miterlimit="10" stroke-linecap="round" stroke-linejoin="round"/>
<path d="M59.2317 17.5918C58.9462 17.7164 58.6588 17.8419 58.3933 18.0055C58.1278 18.1692 57.8823 18.3729 57.7068 18.6302C57.4731 18.973 57.3731 19.404 57.4331 19.8141" stroke="#3F3C39" stroke-width="0.2022" stroke-miterlimit="10" stroke-linecap="round" stroke-linejoin="round"/>
<path d="M38.905 29.7646C38.9132 29.9283 38.8341 30.0901 38.685 30.1811C38.1885 30.4839 37.6011 30.5648 37.03 30.4093C36.4581 30.2538 35.9652 29.8792 35.7115 29.4072C35.5915 29.1835 35.6752 28.9053 35.8989 28.7853C36.1225 28.6652 36.4008 28.7489 36.5208 28.9726C36.6527 29.2181 36.9473 29.4345 37.2701 29.5218C37.4992 29.5846 37.8475 29.6127 38.2049 29.3954C38.4213 29.2636 38.7041 29.3318 38.8368 29.5491C38.8796 29.6173 38.9014 29.6909 38.905 29.7646Z" fill="#747EF7"/>
<path d="M39.2098 28.9013C39.218 29.065 39.1398 29.2268 38.9897 29.3178C38.4933 29.6206 37.9058 29.7015 37.3357 29.546C36.7638 29.3905 36.2709 29.0159 36.0172 28.5439C35.8972 28.3203 35.9808 28.042 36.2045 27.922C36.4282 27.802 36.7065 27.8856 36.8265 28.1093C36.9584 28.3548 37.2529 28.5712 37.5757 28.6585C37.8049 28.7204 38.1532 28.7494 38.5105 28.5312C38.7269 28.3994 39.0097 28.4676 39.1425 28.6849C39.1843 28.754 39.2062 28.8286 39.2098 28.9013Z" fill="#747EF7"/>
<path d="M39.5081 28.0615C39.5163 28.2251 39.4381 28.387 39.2881 28.4779C38.7916 28.7807 38.2042 28.8617 37.6341 28.7062C37.0621 28.5507 36.5692 28.176 36.3155 27.7041C36.1955 27.4804 36.2792 27.2022 36.5029 27.0821C36.7265 26.9621 37.0048 27.0458 37.1248 27.2695C37.2567 27.5159 37.5513 27.7314 37.8741 27.8187C38.1032 27.8814 38.4515 27.9096 38.8089 27.6923C39.0253 27.5604 39.3081 27.6286 39.4408 27.846C39.4827 27.9142 39.5045 27.9878 39.5081 28.0615Z" fill="#747EF7"/>
<path d="M39.806 27.2236C39.8141 27.3873 39.736 27.5491 39.5859 27.64C39.0895 27.9428 38.502 28.0238 37.9319 27.8683C37.3599 27.7128 36.8671 27.3382 36.6134 26.8662C36.4934 26.6425 36.577 26.3643 36.8007 26.2442C37.0244 26.1242 37.3026 26.2079 37.4236 26.4316C37.5554 26.678 37.8501 26.8935 38.1729 26.9817C38.402 27.0444 38.7503 27.0727 39.1076 26.8553C39.3241 26.7235 39.6068 26.7917 39.7396 27.009C39.7805 27.0763 39.8023 27.1499 39.806 27.2236Z" fill="#747EF7"/>
<path d="M40.5991 25.7186C40.6018 25.7732 40.5946 25.8295 40.5773 25.885C40.4991 26.1269 40.2399 26.2587 39.998 26.1796C39.1915 25.9168 38.5004 26.3379 38.4931 26.3415C38.2795 26.4779 37.9948 26.4161 37.8584 26.2024C37.7211 25.9887 37.7839 25.7041 37.9976 25.5677C38.0403 25.5404 39.0524 24.9057 40.2818 25.3058C40.4682 25.3658 40.5891 25.534 40.5991 25.7186Z" fill="#747EF7"/>
<path d="M39.8914 29.8806C39.364 29.6896 38.8657 30.1907 38.3974 30.3243C37.9291 30.4571 38.512 27.9474 38.512 27.9474C38.512 27.9474 38.6684 27.0909 39.1076 26.8544C39.5468 26.6189 39.7641 26.0351 39.3685 26.0933C38.973 26.1515 38.6738 25.0813 39.6022 25.1758C40.5297 25.2704 41.4309 25.746 41.4309 25.746L39.8914 29.8806Z" fill="#747EF7"/>
<path d="M36.4028 28.9473C36.9302 29.4856 37.4795 29.7602 38.3788 29.2501" stroke="#3F3C39" stroke-width="0.2022" stroke-miterlimit="10" stroke-linecap="round" stroke-linejoin="round"/>
<path d="M36.6318 28.0449C37.1592 28.5832 37.7085 28.8578 38.6078 28.3477" stroke="#3F3C39" stroke-width="0.2022" stroke-miterlimit="10" stroke-linecap="round" stroke-linejoin="round"/>
<path d="M36.9111 27.1113C37.4385 27.6496 37.9878 27.9242 38.8871 27.4141" stroke="#3F3C39" stroke-width="0.2022" stroke-miterlimit="10" stroke-linecap="round" stroke-linejoin="round"/>
<path d="M38.7036 29.3978C38.7491 29.0895 38.7945 28.7794 38.8827 28.4803C38.9709 28.1811 39.1028 27.891 39.3046 27.6537C39.5738 27.3382 39.9639 27.1281 40.3749 27.0781" stroke="#3F3C39" stroke-width="0.2022" stroke-miterlimit="10" stroke-linecap="round" stroke-linejoin="round"/>
<path d="M63.14 42.0643L59.59 44.684C58.287 42.919 56.8475 41.3214 55.3581 39.8883C48.2509 33.0494 39.9935 29.9177 39.8926 29.8804L41.4257 25.7422C41.8685 25.9077 50.5324 29.1721 58.2242 36.5129C59.9474 38.1561 61.6196 40.0011 63.14 42.0643Z" fill="#747EF7"/>
<path d="M63.1398 42.067L59.5899 44.6867C58.2868 42.9217 56.8474 41.3241 55.3579 39.891L58.2241 36.5156C59.9472 38.1587 61.6194 40.0037 63.1398 42.067Z" fill="#FF6000"/>
<path d="M60.6458 53.7747C60.6458 51.2451 62.3889 49.311 62.3889 49.311C62.3889 49.311 61.1559 46.7076 59.4019 44.4334C64.594 40.2406 69.8252 40.427 69.8252 40.427C69.8252 40.427 70.459 42.4284 70.6427 43.8297C72.4377 44.9645 71.0928 47.0477 71.0928 47.0477C71.7184 51.5979 71.3874 54.0703 71.3874 54.0703L60.6458 53.7747Z" fill="#FF6000"/>
<path d="M61.3621 44.7968C61.3621 44.7968 61.1739 43.5701 61.5003 43.5801C61.8268 43.5901 61.5394 44.7968 61.5394 44.7968C61.5394 44.7968 62.2714 44.1012 62.4096 44.273C62.5924 44.5004 61.604 44.9059 61.604 44.9059C61.604 44.9059 62.4297 45.3851 62.2814 45.6033C62.1332 45.8207 61.4412 45.0005 61.4412 45.0005C61.4412 45.0005 61.273 45.9352 60.962 45.7961C60.6511 45.6579 61.3185 44.9604 61.3185 44.9604C61.3185 44.9604 60.3046 44.7086 60.4874 44.4021C60.6701 44.0948 61.3621 44.7968 61.3621 44.7968Z" fill="#FFBF9B"/>
<path d="M64.1167 43.4765C64.1167 43.4765 63.9285 42.2498 64.255 42.2598C64.5814 42.2698 64.2941 43.4765 64.2941 43.4765C64.2941 43.4765 65.0261 42.7809 65.1643 42.9527C65.347 43.18 64.3586 43.5856 64.3586 43.5856C64.3586 43.5856 65.1843 44.0648 65.036 44.283C64.8878 44.5004 64.1959 43.6802 64.1959 43.6802C64.1959 43.6802 64.0276 44.6149 63.7157 44.4758C63.4047 44.3376 64.0722 43.6402 64.0722 43.6402C64.0722 43.6402 63.0583 43.3883 63.242 43.0818C63.4247 42.7745 64.1167 43.4765 64.1167 43.4765Z" fill="#FFBF9B"/>
<path d="M57.1268 40.1327C57.1268 40.1327 56.9386 38.9061 57.2651 38.9161C57.5915 38.9261 57.3051 40.1327 57.3051 40.1327C57.3051 40.1327 58.0371 39.4371 58.1753 39.609C58.3581 39.8363 57.3696 40.2419 57.3696 40.2419C57.3696 40.2419 58.1953 40.7211 58.0471 40.9393C57.8988 41.1566 57.2069 40.3364 57.2069 40.3364C57.2069 40.3364 57.0386 41.2712 56.7277 41.1321C56.4167 40.9939 57.0841 40.2964 57.0841 40.2964C57.0841 40.2964 56.0702 40.0445 56.253 39.7381C56.4349 39.4298 57.1268 40.1327 57.1268 40.1327Z" fill="#FFBF9B"/>
<path d="M63.3438 49.3417C63.3438 49.3417 63.1556 48.1151 63.482 48.1251C63.8085 48.1351 63.5211 49.3417 63.5211 49.3417C63.5211 49.3417 64.2531 48.6461 64.3913 48.8179C64.5741 49.0453 63.5857 49.4508 63.5857 49.4508C63.5857 49.4508 64.4113 49.93 64.2631 50.1483C64.1149 50.3656 63.4229 49.5454 63.4229 49.5454C63.4229 49.5454 63.2547 50.4802 62.9437 50.3411C62.6318 50.2028 63.2992 49.5054 63.2992 49.5054C63.2992 49.5054 62.2853 49.2535 62.469 48.9471C62.6518 48.6397 63.3438 49.3417 63.3438 49.3417Z" fill="#FFBF9B"/>
<path d="M64.7538 46.4452C64.7538 46.4452 64.5656 45.2186 64.892 45.2286C65.2185 45.2386 64.932 46.4452 64.932 46.4452C64.932 46.4452 65.664 45.7496 65.8022 45.9215C65.985 46.1488 64.9966 46.5543 64.9966 46.5543C64.9966 46.5543 65.8222 47.0335 65.674 47.2518C65.5258 47.4691 64.8338 46.6489 64.8338 46.6489C64.8338 46.6489 64.6656 47.5837 64.3546 47.4455C64.0427 47.3072 64.7111 46.6098 64.7111 46.6098C64.7111 46.6098 63.6972 46.3579 63.88 46.0515C64.0627 45.7451 64.7538 46.4452 64.7538 46.4452Z" fill="#FFBF9B"/>
<path d="M67.1529 49.3417C67.1529 49.3417 66.9647 48.1151 67.2912 48.1251C67.6176 48.1351 67.3312 49.3417 67.3312 49.3417C67.3312 49.3417 68.0632 48.6461 68.2014 48.8179C68.3841 49.0453 67.3957 49.4508 67.3957 49.4508C67.3957 49.4508 68.2214 49.93 68.0731 50.1483C67.9249 50.3656 67.233 49.5454 67.233 49.5454C67.233 49.5454 67.0647 50.4802 66.7537 50.3411C66.4428 50.2028 67.1093 49.5054 67.1093 49.5054C67.1093 49.5054 66.0954 49.2535 66.2791 48.9471C66.4628 48.6406 67.1529 49.3417 67.1529 49.3417Z" fill="#FFBF9B"/>
<path d="M70.169 49.1327C70.169 49.1327 69.9808 47.9061 70.3072 47.9161C70.6337 47.9261 70.3463 49.1327 70.3463 49.1327C70.3463 49.1327 71.0783 48.4371 71.2165 48.609C71.3993 48.8363 70.4109 49.2419 70.4109 49.2419C70.4109 49.2419 71.2366 49.7211 71.0883 49.9393C70.9401 50.1566 70.2481 49.3364 70.2481 49.3364C70.2481 49.3364 70.0799 50.2712 69.7689 50.133C69.4571 49.9947 70.1254 49.2973 70.1254 49.2973C70.1254 49.2973 69.1115 49.0454 69.2952 48.739C69.4789 48.4326 70.169 49.1327 70.169 49.1327Z" fill="#FFBF9B"/>
<path d="M68.6304 45.9081C68.6304 45.9081 68.4422 44.6815 68.7686 44.6915C69.0951 44.7015 68.8077 45.9081 68.8077 45.9081C68.8077 45.9081 69.5397 45.2125 69.6779 45.3844C69.8607 45.6117 68.8723 46.0172 68.8723 46.0172C68.8723 46.0172 69.698 46.4964 69.5497 46.7147C69.4015 46.932 68.7095 46.1118 68.7095 46.1118C68.7095 46.1118 68.5413 47.0466 68.2294 46.9084C67.9184 46.7702 68.5859 46.0727 68.5859 46.0727C68.5859 46.0727 67.572 45.8208 67.7556 45.5144C67.9375 45.2061 68.6304 45.9081 68.6304 45.9081Z" fill="#FFBF9B"/>
<path d="M68.6304 42.6132C68.6304 42.6132 68.4422 41.3865 68.7686 41.3965C69.0951 41.4065 68.8077 42.6132 68.8077 42.6132C68.8077 42.6132 69.5397 41.9176 69.6779 42.0894C69.8607 42.3168 68.8723 42.7223 68.8723 42.7223C68.8723 42.7223 69.698 43.2015 69.5497 43.4197C69.4015 43.6371 68.7095 42.8169 68.7095 42.8169C68.7095 42.8169 68.5413 43.7516 68.2294 43.6125C67.9184 43.4743 68.5859 42.7769 68.5859 42.7769C68.5859 42.7769 67.572 42.525 67.7556 42.2186C67.9375 41.9112 68.6304 42.6132 68.6304 42.6132Z" fill="#FFBF9B"/>
<path d="M65.7318 52.4609C65.7318 52.4609 65.5435 51.2342 65.87 51.2442C66.1964 51.2542 65.9091 52.4609 65.9091 52.4609C65.9091 52.4609 66.6411 51.7653 66.7793 51.9371C66.9621 52.1644 65.9736 52.57 65.9736 52.57C65.9736 52.57 66.7993 53.0492 66.6511 53.2674C66.5028 53.4847 65.8109 52.6646 65.8109 52.6646C65.8109 52.6646 65.6426 53.5993 65.3317 53.4602C65.0198 53.322 65.6881 52.6245 65.6881 52.6245C65.6881 52.6245 64.6742 52.3727 64.857 52.0662C65.0398 51.7589 65.7318 52.4609 65.7318 52.4609Z" fill="#FFBF9B"/>
<path d="M62.19 52.4609C62.19 52.4609 62.0018 51.2342 62.3283 51.2442C62.6547 51.2542 62.3683 52.4609 62.3683 52.4609C62.3683 52.4609 63.1003 51.7653 63.2385 51.9371C63.4213 52.1644 62.4329 52.57 62.4329 52.57C62.4329 52.57 63.2585 53.0492 63.1103 53.2674C62.9621 53.4847 62.2701 52.6646 62.2701 52.6646C62.2701 52.6646 62.1018 53.5993 61.7909 53.4602C61.4799 53.322 62.1464 52.6245 62.1464 52.6245C62.1464 52.6245 61.1325 52.3727 61.3162 52.0662C61.4971 51.7589 62.19 52.4609 62.19 52.4609Z" fill="#FFBF9B"/>
<path d="M69.8589 51.9101C69.8589 51.9101 69.6707 50.6834 69.9971 50.6934C70.3236 50.7034 70.0362 51.9101 70.0362 51.9101C70.0362 51.9101 70.7682 51.2145 70.9065 51.3863C71.0892 51.6137 70.1008 52.0192 70.1008 52.0192C70.1008 52.0192 70.9264 52.4984 70.7782 52.7166C70.63 52.934 69.938 52.1138 69.938 52.1138C69.938 52.1138 69.7698 53.0485 69.4579 52.9094C69.1469 52.7712 69.8144 52.0738 69.8144 52.0738C69.8144 52.0738 68.8005 51.8219 68.9842 51.5155C69.1669 51.2081 69.8589 51.9101 69.8589 51.9101Z" fill="#FFBF9B"/>
<path d="M60.3785 41.2479C60.3785 41.2479 60.1903 40.0213 60.5167 40.0313C60.8432 40.0413 60.5567 41.2479 60.5567 41.2479C60.5567 41.2479 61.2887 40.5523 61.4269 40.7242C61.6097 40.9515 60.6213 41.3571 60.6213 41.3571C60.6213 41.3571 61.4469 41.8363 61.2987 42.0545C61.1505 42.2719 60.4585 41.4516 60.4585 41.4516C60.4585 41.4516 60.2903 42.3864 59.9793 42.2473C59.6674 42.1091 60.3349 41.4116 60.3349 41.4116C60.3349 41.4116 59.321 41.1598 59.5047 40.8533C59.6865 40.546 60.3785 41.2479 60.3785 41.2479Z" fill="#FFBF9B"/>
<path d="M67.412 39.8925C67.412 39.8925 67.2238 38.6658 67.5502 38.6758C67.8767 38.6858 67.5902 39.8925 67.5902 39.8925C67.5902 39.8925 68.3222 39.1969 68.4604 39.3687C68.6432 39.5961 67.6548 40.0016 67.6548 40.0016C67.6548 40.0016 68.4804 40.4808 68.3322 40.699C68.184 40.9164 67.492 40.0962 67.492 40.0962C67.492 40.0962 67.3238 41.0309 67.0128 40.8918C66.7018 40.7536 67.3693 40.0561 67.3693 40.0561C67.3693 40.0561 66.3554 39.8043 66.5382 39.4969C66.72 39.1905 67.412 39.8925 67.412 39.8925Z" fill="#FFBF9B"/>
<path d="M66.7901 35.3144C66.7901 35.3144 66.6019 34.0877 66.9283 34.0977C67.2547 34.1077 66.9674 35.3144 66.9674 35.3144C66.9674 35.3144 67.6994 34.6187 67.8376 34.7906C68.0204 35.0179 67.0319 35.4235 67.0319 35.4235C67.0319 35.4235 67.8576 35.9027 67.7094 36.1209C67.5612 36.3383 66.8692 35.5181 66.8692 35.5181C66.8692 35.5181 66.701 36.4528 66.39 36.3137C66.0781 36.1755 66.7455 35.4781 66.7455 35.4781C66.7455 35.4781 65.7316 35.2262 65.9153 34.9197C66.099 34.6133 66.7901 35.3144 66.7901 35.3144Z" fill="#FFBF9B"/>
<path d="M66.3588 40.9062C65.2576 41.1954 64.2228 41.5637 63.2607 42.0174C66.727 44.618 67.4772 43.5942 66.3588 40.9062Z" fill="#747EF7"/>
<path d="M65.4223 36.6023C65.9915 37.6207 66.7753 38.9756 66.278 39.6666C66.1197 39.8867 65.7524 40.0204 65.7524 40.0204L66.3061 41.8935L63.5146 42.2136L62.4443 38.4554L62.8944 36.9414C62.8944 36.9414 64.9004 35.6812 65.4223 36.6023Z" fill="#747EF7"/>
<path d="M62.7434 39.5053C63.5854 39.1188 63.4709 38.3923 63.4709 38.3923C62.7343 38.2313 62.8125 37.8412 62.9953 37.6503C63.1772 37.4584 63.4772 37.854 63.4772 37.854C64.6348 37.9458 65.0985 36.3218 65.0985 36.3218C63.9201 35.8471 61.8277 36.4827 61.6277 37.2384C61.4277 37.994 62.7389 39.4662 62.7389 39.4662" fill="#3F3C39"/>
<path d="M65.7239 40.0176C65.0438 40.2749 64.4009 40.0567 64.4009 40.0567C64.4009 40.0567 65.0138 40.7987 65.8931 40.4977L65.7239 40.0176Z" fill="#3F3C39"/>
<path d="M65.947 37.4162C65.8851 37.3735 65.8051 37.3562 65.7315 37.3698C65.6569 37.3834 65.5896 37.4289 65.5469 37.4917" stroke="#3F3C39" stroke-width="0.2022" stroke-miterlimit="10" stroke-linecap="round" stroke-linejoin="round"/>
<path d="M65.114 37.648C65.0495 37.6134 64.9695 37.6098 64.9022 37.6379C64.8349 37.6661 64.7812 37.7252 64.7612 37.7953" stroke="#3F3C39" stroke-width="0.2022" stroke-miterlimit="10" stroke-linecap="round" stroke-linejoin="round"/>
<path d="M65.5518 37.8809C65.6354 38.0018 65.7073 38.13 65.7682 38.2637" stroke="#3F3C39" stroke-width="0.2022" stroke-miterlimit="10" stroke-linecap="round" stroke-linejoin="round"/>
<path d="M65.824 38.7124C65.6376 38.7033 65.4321 38.6687 65.2448 38.5996C65.2084 39.2279 65.6512 39.0734 65.824 38.7124Z" stroke="#3F3C39" stroke-width="0.2022" stroke-miterlimit="10" stroke-linecap="round" stroke-linejoin="round"/>
<path d="M64.4873 47.9656C64.1527 47.8455 63.8608 47.6091 63.6744 47.3072C63.488 47.0044 63.4079 46.638 63.4516 46.2852" stroke="#3F3C39" stroke-width="0.2022" stroke-miterlimit="10" stroke-linecap="round" stroke-linejoin="round"/>
<path d="M52.8546 84.8422H58.9206C58.9206 70.8825 51.7853 63.8 46.5749 58.6278C43.2405 55.3179 41.4437 53.512 41.0509 50.6641L35.1304 50.725C35.1304 55.8153 38.6139 59.2734 42.3012 62.9334C47.2478 67.8436 52.8546 73.4086 52.8546 84.8422Z" fill="#843D3D"/>
<path d="M59.1772 82.7461L59.0372 84.843H52.7393L52.6147 82.8243L59.1772 82.7461Z" fill="#A85151"/>
<path d="M32.9935 84.8418H39.0595C39.0595 82.1603 40.0352 80.2198 41.1645 77.9739C42.4585 75.3996 43.9261 72.4825 43.8761 68.3625C43.8261 64.2497 41.8583 61.3017 40.1225 58.7001C38.4312 56.1668 36.9708 53.9781 36.9708 50.7246H30.9048C30.9048 55.8167 33.2181 59.283 35.0767 62.0682C36.588 64.3333 37.7819 66.1219 37.8101 68.437C37.8419 71.0786 36.8708 73.0108 35.745 75.2486C34.4556 77.8138 32.9935 80.7209 32.9935 84.8418Z" fill="#843D3D"/>
<path d="M39.3681 82.7461L39.2271 84.843H32.9293L32.8047 82.8243L39.3681 82.7461Z" fill="#A85151"/>
<path d="M32.988 84.8418H39.0622C39.0622 85.2646 41.5964 85.3583 41.7374 86.1085H32.828C32.828 86.1085 32.7143 85.401 32.988 84.8418Z" fill="#3F3C39"/>
<path d="M52.8573 84.8418H58.9315C58.9315 85.2646 61.4657 85.3583 61.6067 86.1085H52.6964C52.6964 86.1085 52.5836 85.401 52.8573 84.8418Z" fill="#3F3C39"/>
<path d="M42.6861 63.2414C42.1087 61.6501 41.2276 60.1689 40.1055 58.9004" stroke="#3F3C39" stroke-width="0.2022" stroke-miterlimit="10" stroke-linecap="round" stroke-linejoin="round"/>
<path d="M40.1602 59.7577C38.8872 59.4749 37.525 59.6104 36.332 60.1378" stroke="#3F3C39" stroke-width="0.2022" stroke-miterlimit="10" stroke-linecap="round" stroke-linejoin="round"/>
<path d="M33.2284 53.4004C33.3693 54.0896 33.0065 54.8507 32.3818 55.1735" stroke="#3F3C39" stroke-width="0.2022" stroke-miterlimit="10" stroke-linecap="round" stroke-linejoin="round"/>
<path d="M41.3887 59.5108C42.2907 58.9834 43.3446 58.7215 44.3885 58.7643" stroke="#3F3C39" stroke-width="0.2022" stroke-miterlimit="10" stroke-linecap="round" stroke-linejoin="round"/>
<path d="M43.1153 22.4788C42.9007 22.4042 42.7607 22.1878 42.7907 21.9532C42.8252 21.6849 43.0707 21.4949 43.339 21.5294C44.9694 21.7386 46.9262 22.5079 47.0089 22.5397C47.2608 22.6397 47.3845 22.9243 47.2844 23.1762C47.1853 23.4281 46.9007 23.5499 46.6479 23.4517C46.6289 23.4445 44.7211 22.6952 43.2144 22.5024C43.1798 22.497 43.1471 22.4897 43.1153 22.4788Z" fill="#F95D77"/>
<path d="M42.61 23.1311C42.3963 23.0566 42.2563 22.8401 42.2863 22.6055C42.3208 22.3373 42.5663 22.1472 42.8346 22.1818C44.4641 22.3909 46.4209 23.1602 46.5036 23.1921C46.7555 23.2921 46.8792 23.5767 46.7791 23.8286C46.68 24.0804 46.3973 24.2005 46.1436 24.1041C46.1245 24.0959 44.2167 23.3475 42.71 23.1548C42.6755 23.1502 42.6418 23.142 42.61 23.1311Z" fill="#F95D77"/>
<path d="M42.1055 23.7854C41.8909 23.7108 41.7509 23.4944 41.7809 23.2598C41.8154 22.9916 42.061 22.8015 42.3292 22.8361C43.9587 23.0452 45.9164 23.8136 45.9983 23.8463C46.2501 23.9464 46.3738 24.231 46.2738 24.4828C46.1747 24.7347 45.8892 24.8511 45.6382 24.7584C45.6191 24.7502 43.7114 24.0018 42.2046 23.8091C42.1701 23.8045 42.1364 23.7963 42.1055 23.7854Z" fill="#F95D77"/>
<path d="M41.5997 24.4417C41.3851 24.3671 41.245 24.1507 41.275 23.9161C41.3096 23.6478 41.5551 23.4578 41.8233 23.4923C43.4537 23.7015 45.4106 24.4699 45.4924 24.5026C45.7443 24.6017 45.8679 24.8872 45.7679 25.1391C45.6688 25.391 45.3824 25.5128 45.1323 25.4146C45.1132 25.4064 43.2055 24.6581 41.6988 24.4653C41.6651 24.4598 41.6315 24.4526 41.5997 24.4417Z" fill="#F95D77"/>
<path d="M43.6012 27.2939C43.4866 27.2539 43.3857 27.1712 43.3257 27.0539C43.2029 26.8129 43.2975 26.5183 43.5385 26.3955C43.593 26.3674 44.8797 25.7217 46.0136 26.1691C46.2655 26.2691 46.3873 26.5547 46.2873 26.8066C46.1873 27.0584 45.9009 27.1812 45.6499 27.0812C44.9397 26.7938 43.994 27.2648 43.984 27.2694C43.8613 27.3303 43.723 27.3358 43.6012 27.2939Z" fill="#F95D77"/>
<path d="M46.7156 22.4277C47.6576 22.7851 49.1625 22.5205 49.8736 24.0027C50.7711 25.8722 47.1602 27.9363 47.1602 27.9363C46.3127 27.2853 45.4371 26.9997 45.2752 26.9943C45.1134 26.9879 45.2916 26.6269 45.2916 26.6269L45.047 26.014C45.5225 25.8713 45.2934 25.4848 45.007 25.3666C44.7215 25.2484 46.7156 22.4277 46.7156 22.4277Z" fill="#F95D77"/>
<path d="M42.2217 23.5566C43.732 23.7885 45.3642 24.3696 45.3642 24.3696" stroke="#3F3C39" stroke-width="0.2157" stroke-miterlimit="10" stroke-linecap="round" stroke-linejoin="round"/>
<path d="M42.6465 22.9062C44.1568 23.1381 45.789 23.7192 45.789 23.7192" stroke="#3F3C39" stroke-width="0.2157" stroke-miterlimit="10" stroke-linecap="round" stroke-linejoin="round"/>
<path d="M43.1572 22.2344C44.6676 22.4662 46.2998 23.0473 46.2998 23.0473" stroke="#3F3C39" stroke-width="0.2157" stroke-miterlimit="10" stroke-linecap="round" stroke-linejoin="round"/>
<path d="M46.4526 25.0295C47.0037 24.1602 48.3585 24.6021 48.7359 25.075" stroke="#3F3C39" stroke-width="0.2157" stroke-miterlimit="10" stroke-linecap="round" stroke-linejoin="round"/>
<path d="M31.3186 60.5802C31.0813 60.6429 30.8303 60.5192 30.7385 60.2855C30.5839 59.8945 30.2938 59.6145 29.981 59.5553C29.6019 59.4826 29.2554 59.7536 29.0326 59.9936C28.848 60.1909 28.538 60.2019 28.3397 60.0173C28.1415 59.8327 28.1315 59.5226 28.3161 59.3244C28.8699 58.7306 29.5264 58.4705 30.1647 58.5915C30.8058 58.7133 31.3759 59.2244 31.6514 59.9254C31.7506 60.1773 31.6269 60.4619 31.375 60.561C31.355 60.5692 31.3368 60.5756 31.3186 60.5802Z" fill="#F95D77"/>
<path d="M31.8996 59.9063C31.6623 59.9691 31.4113 59.8454 31.3195 59.6117C31.1658 59.2207 30.8748 58.9415 30.562 58.8815C30.1828 58.8088 29.8364 59.0797 29.6127 59.3198C29.4281 59.5171 29.118 59.528 28.9198 59.3434C28.7216 59.1589 28.7116 58.8488 28.8962 58.6506C29.4509 58.0568 30.1065 57.7967 30.7448 57.9177C31.3858 58.0395 31.956 58.5505 32.2315 59.2516C32.3306 59.5035 32.2069 59.7881 31.9551 59.8872C31.9369 59.8954 31.9178 59.9009 31.8996 59.9063Z" fill="#F95D77"/>
<path d="M32.4817 59.2305C32.2443 59.2933 31.9934 59.1696 31.9015 58.9359C31.7478 58.5449 31.4569 58.2649 31.1441 58.2058C30.7658 58.1339 30.4185 58.404 30.1948 58.644C30.0102 58.8414 29.7001 58.8523 29.5018 58.6677C29.3036 58.4831 29.2936 58.173 29.4782 57.9748C30.032 57.381 30.6885 57.1209 31.3268 57.2419C31.9679 57.3637 32.538 57.8748 32.8145 58.5758C32.9136 58.8277 32.7899 59.1123 32.538 59.2114C32.5189 59.2196 32.4998 59.226 32.4817 59.2305Z" fill="#F95D77"/>
<path d="M33.0628 58.5547C32.8254 58.6175 32.5745 58.4938 32.4826 58.2601C32.329 57.8691 32.038 57.5891 31.7252 57.53C31.346 57.4581 31.0005 57.7291 30.7768 57.9682C30.5922 58.1656 30.2821 58.1765 30.0839 57.9919C29.8856 57.8073 29.8756 57.4972 30.0602 57.299C30.614 56.7052 31.2714 56.4452 31.9088 56.5661C32.5499 56.6879 33.1201 57.199 33.3956 57.9C33.4947 58.1519 33.371 58.4365 33.1192 58.5356C33.1001 58.5438 33.0819 58.5502 33.0628 58.5547Z" fill="#F95D77"/>
<path d="M26.4766 60.13C27.6778 60.9948 28.5098 60.7601 29.119 59.9054C29.7292 59.0497 30.964 56.6619 30.964 56.6619C29.751 57.0338 28.9253 56.4609 28.9253 56.4609L26.4766 60.13Z" fill="#F95D77"/>
<path d="M29.457 58.8019C30.6055 58.1545 31.4784 59.6193 31.4784 59.6193" stroke="#3F3C39" stroke-width="0.2157" stroke-miterlimit="10" stroke-linecap="round" stroke-linejoin="round"/>
<path d="M30.0415 58.1378C31.19 57.4904 32.0629 58.9553 32.0629 58.9553" stroke="#3F3C39" stroke-width="0.2157" stroke-miterlimit="10" stroke-linecap="round" stroke-linejoin="round"/>
<path d="M30.626 57.4738C31.7744 56.8263 32.6474 58.2912 32.6474 58.2912" stroke="#3F3C39" stroke-width="0.2157" stroke-miterlimit="10" stroke-linecap="round" stroke-linejoin="round"/>
<path d="M20.0132 49.8038C20.3423 55.9934 26.2265 59.9644 26.4765 60.1317L28.9217 56.459C28.8798 56.4299 24.6288 53.5247 24.4197 49.571C24.3497 48.2716 24.808 47.0931 25.7782 46.0692C26.1183 45.711 26.5156 45.3763 26.9676 45.069C29.3336 43.4477 33.1609 42.5411 37.7856 42.5411C38.4494 42.5411 39.1978 42.5666 39.988 42.5948C42.7195 42.6902 46.2531 42.8157 49.2311 41.7891C51.4443 41.0262 53.3502 39.6295 54.3969 37.1144C56.7992 31.333 50.7032 25.2134 49.9994 24.5332L46.9351 27.7076C48.1517 28.8897 51.3889 32.8534 50.3231 35.4213C49.8576 36.537 48.9701 37.2299 47.7571 37.649C45.8748 38.3019 43.2106 38.2919 40.1425 38.1855C39.3114 38.1564 38.5267 38.1283 37.7856 38.1283C32.9308 38.1283 28.8899 38.9648 25.8628 40.577C24.5815 41.2572 23.4822 42.0774 22.5774 43.0312C20.7652 44.9435 19.8795 47.2832 20.0132 49.8038Z" fill="#F95D77"/>
<path d="M31.0742 53.0663L41.8059 53.0044C40.6029 50.4611 40.8766 46.2901 41.985 43.5895C42.336 42.7365 42.7189 42.0509 43.0471 41.6172L41.5213 41.6981L33.0065 42.1464L31.839 42.2091C31.558 42.8711 31.3425 43.5658 31.1825 44.2824C30.5523 47.063 30.736 50.1856 31.0742 53.0663Z" fill="white"/>
<path d="M25.8628 40.5793L26.9676 45.0703C29.3336 43.4491 33.1609 42.5425 37.7856 42.5425C38.4494 42.5425 39.1978 42.568 39.988 42.5961C42.7195 42.6916 46.2531 42.8171 49.2311 41.7905L47.7571 37.6504C45.8748 38.3033 43.2106 38.2933 40.1426 38.1869C39.3115 38.1578 38.5267 38.1296 37.7856 38.1296C32.9308 38.1305 28.8908 38.9671 25.8628 40.5793Z" fill="#3F3C39"/>
<path d="M35.7881 38.1821C36.7856 40.7709 38.5169 41.7557 39.449 38.1658C37.8413 38.083 35.7881 38.1821 35.7881 38.1821Z" fill="#F95D77"/>
<path d="M36.5683 32.746C36.5819 32.6423 36.6447 32.5468 36.7338 32.4932C36.6092 32.4486 36.5392 32.2895 36.5919 32.1677C36.6437 32.0467 36.7847 31.9876 36.9156 31.9767C37.0466 31.9658 37.1757 32.0122 37.3066 32.0003C37.4512 31.8512 37.5976 31.6994 37.7786 31.5966C37.8422 31.5602 37.9113 31.5302 37.985 31.5275C38.0577 31.5248 38.1359 31.5539 38.1759 31.6148C38.2159 31.6757 38.205 31.7703 38.1432 31.8094C38.4306 31.7076 38.7206 31.6048 39.0243 31.5775C39.158 31.5657 39.3026 31.5702 39.4126 31.6466C39.5226 31.723 39.5772 31.8921 39.4935 31.9958C39.699 31.9149 39.92 31.8748 40.141 31.8767C40.2219 31.8776 40.3074 31.8858 40.3701 31.9367C40.4292 31.9858 40.4556 32.0667 40.4556 32.1431C40.4556 32.2204 40.4338 32.295 40.4119 32.3695C40.491 32.355 40.5729 32.3404 40.6529 32.3513C40.7329 32.3632 40.8129 32.4059 40.8475 32.4796C40.8784 32.545 40.8684 32.6223 40.8502 32.6923C40.8011 32.8805 40.6966 33.0551 40.5502 33.1834L40.3392 34.4037C40.3364 34.4037 40.3337 34.4037 40.331 34.4037L36.631 35.0292L36.6647 33.0315C36.5901 32.9579 36.5547 32.8496 36.5683 32.746Z" fill="#3F3C39"/>
<path d="M40.2963 33.3553C40.3973 34.5174 40.5555 36.075 39.818 36.5006C39.5825 36.6361 39.1933 36.6079 39.1933 36.6079L38.9287 38.5438L36.1099 38.6602L36.82 33.8236L37.853 32.6278C37.853 32.6278 40.199 32.3014 40.2963 33.3553Z" fill="#F95D77"/>
<path d="M36.6411 35.0391L37.5249 34.4263C36.9612 34.1135 36.963 33.6252 37.304 33.4979C37.645 33.3706 37.845 33.7916 37.845 33.7916C38.0924 33.6224 37.8032 33.406 37.8841 33.116C37.966 32.8259 39.6864 32.7049 40.252 33.1751C40.0947 32.524 37.9041 31.8966 37.123 32.5604C36.7039 32.9159 36.6411 35.0391 36.6411 35.0391Z" fill="#3F3C39"/>
<path d="M40.3464 34.2358C40.32 34.1849 40.2645 34.1503 40.2081 34.1485C40.1509 34.1467 40.0936 34.1785 40.0645 34.2276" stroke="#3F3C39" stroke-width="0.2022" stroke-miterlimit="10" stroke-linecap="round" stroke-linejoin="round"/>
<path d="M39.1569 34.2371C39.1114 34.1698 39.0587 34.097 38.9805 34.0761C38.9304 34.0634 38.8768 34.0725 38.8313 34.0952C38.7849 34.1179 38.7458 34.1516 38.7095 34.1889" stroke="#3F3C39" stroke-width="0.2022" stroke-miterlimit="10" stroke-linecap="round" stroke-linejoin="round"/>
<path d="M39.645 34.2871C39.6759 34.4981 39.7069 34.709 39.7369 34.92" stroke="#3F3C39" stroke-width="0.2022" stroke-miterlimit="10" stroke-linecap="round" stroke-linejoin="round"/>
<path d="M39.044 34.9361C39.0313 34.9252 39.014 34.9134 38.9986 34.9198C38.9804 34.9279 38.9804 34.9525 38.9822 34.9716C38.9949 35.0862 39.0131 35.2062 39.0822 35.2989C39.1359 35.3717 39.2186 35.4217 39.3078 35.4362C39.375 35.4472 39.4487 35.4381 39.5096 35.408C39.5478 35.3899 39.556 35.3799 39.5278 35.3499C39.4996 35.3189 39.4623 35.2935 39.4314 35.2671C39.3023 35.1571 39.1732 35.0462 39.044 34.9361Z" stroke="#3F3C39" stroke-width="0.2022" stroke-miterlimit="10" stroke-linecap="round" stroke-linejoin="round"/>
<path d="M38.4512 36.3633C38.4512 36.3633 38.8595 36.577 39.1923 36.6061L39.115 37.168L38.4512 36.3633Z" fill="#3F3C39"/>
<path d="M31.0741 53.0669L31.9089 53.0615H32.0962L41.8058 53.0042C40.5873 50.1644 40.9329 46.3017 41.984 43.5901C41.9604 43.5683 41.6312 43.2282 41.5212 41.6988C41.4621 40.9049 41.4639 39.7892 41.5967 38.2316L40.7092 38.2061L40.5273 38.2006L40.2536 38.1934C39.3306 42.1643 36.2936 43.962 35.1324 38.2206C35.0424 38.2261 34.9505 38.2334 34.8587 38.2406C34.7978 38.2443 34.7377 38.2498 34.6768 38.2552C34.4413 38.2752 34.2003 38.2979 33.9539 38.3234C33.9539 38.3234 33.9175 40.3275 33.0073 42.1471C32.79 42.5808 32.5236 43.0018 32.1962 43.3846C32.1171 43.4783 32.0362 43.5665 31.9462 43.6547C31.9462 43.6565 31.9443 43.6565 31.9443 43.6583C31.7179 43.8884 31.4642 44.0993 31.1832 44.283C30.5522 47.0637 30.7359 50.1862 31.0741 53.0669Z" fill="#FF6000"/>
<path d="M38.9398 46.9003C38.8498 46.8421 38.7525 46.793 38.6488 46.7511C38.5452 46.7102 38.4051 46.6584 38.2296 46.5947C38.2124 46.5884 38.1705 46.5747 38.1032 46.552C38.0359 46.5293 37.9878 46.5093 37.9587 46.4929C37.755 46.3829 37.5931 46.2828 37.4731 46.191C37.3531 46.1001 37.263 45.9982 37.2021 45.8855C37.1412 45.7736 37.1157 45.6418 37.1239 45.4908C37.1312 45.3599 37.1857 45.2344 37.2867 45.1153C37.3876 44.9961 37.5413 44.9007 37.7459 44.8297C37.9505 44.7588 38.2033 44.7325 38.5024 44.7488C38.8298 44.767 39.1035 44.8325 39.3235 44.9461C39.5436 45.0598 39.7045 45.2053 39.8073 45.3844C39.91 45.5636 39.9546 45.76 39.9428 45.9737C39.6418 45.9718 39.3317 45.9828 39.0125 46.0055C39.0225 45.9627 39.0289 45.9218 39.0307 45.8818C39.038 45.7536 39.0016 45.6454 38.9216 45.5572C38.8416 45.469 38.7197 45.4208 38.5561 45.4117C38.4078 45.4035 38.2969 45.4226 38.2233 45.469C38.1496 45.5154 38.1105 45.5817 38.106 45.6672C38.1023 45.7354 38.1551 45.8072 38.2642 45.8827C38.3733 45.9582 38.5306 46.0473 38.7343 46.1491C38.8916 46.2292 39.0071 46.2928 39.0798 46.3428C39.3308 46.5111 39.5236 46.6893 39.6581 46.8793C39.7927 47.0685 39.8537 47.2867 39.8391 47.534L39.8309 47.6131L37.1294 47.4622C37.1357 47.344 37.1321 47.2112 37.1175 47.0639C37.103 46.9166 37.0784 46.7766 37.043 46.6429C37.4913 46.7229 38.1232 46.8093 38.9398 46.9003Z" fill="#FFA559"/>
<path d="M34.6658 45.9259C34.4449 45.8504 34.2775 45.7777 34.163 45.7068C34.0484 45.6358 33.972 45.5658 33.9356 45.4967C33.8993 45.4276 33.8829 45.3503 33.8884 45.2648C33.8965 45.1184 33.962 44.9902 34.0857 44.8775C34.2094 44.7656 34.3758 44.682 34.5849 44.6265C34.794 44.571 35.0268 44.551 35.2832 44.5647C35.6788 44.5865 35.998 44.6792 36.2398 44.842C36.4826 45.0048 36.6563 45.2248 36.7618 45.504C36.4544 45.5322 36.1635 45.5931 35.8879 45.6867C35.8352 45.5449 35.7561 45.434 35.6506 45.3549C35.5451 45.2757 35.4042 45.2312 35.2278 45.2212C35.0914 45.2139 34.9904 45.2276 34.9241 45.263C34.8577 45.2985 34.8222 45.3476 34.8195 45.4103C34.8168 45.4658 34.875 45.5049 34.995 45.5285C35.115 45.5513 35.2705 45.5686 35.4624 45.5795L35.636 45.5895L35.5997 46.2505L35.3123 46.2342C35.1441 46.2251 35.0123 46.2223 34.9186 46.226C34.8249 46.2296 34.7558 46.2414 34.7122 46.2614C34.6685 46.2815 34.6449 46.3133 34.6422 46.356C34.6376 46.4369 34.6895 46.5006 34.7986 46.547C34.9068 46.5933 35.0496 46.6215 35.226 46.6315C35.3924 46.6406 35.5242 46.6206 35.6215 46.5724C35.7188 46.5233 35.7961 46.4378 35.8534 46.3142C35.9343 46.3615 36.028 46.4051 36.1362 46.4451C36.2435 46.4851 36.3744 46.5288 36.529 46.5752L36.7372 46.6397C36.4717 47.1807 35.9416 47.429 35.1459 47.3844C34.8713 47.369 34.624 47.319 34.404 47.2353C34.1839 47.1507 34.012 47.0353 33.8893 46.888C33.7665 46.7406 33.7101 46.5679 33.7211 46.3687C33.7256 46.2833 33.752 46.2014 33.7993 46.1251C33.8465 46.0478 33.9202 45.9868 34.0202 45.9405C34.1202 45.8941 34.2466 45.875 34.4003 45.8841C34.4867 45.8895 34.5758 45.9032 34.6658 45.9259Z" fill="#FFA559"/>
<path d="M34.6758 38.2557C34.7476 38.9704 34.9295 39.6752 35.2141 40.3371C35.376 40.7081 35.5687 41.0673 35.7933 41.4047C35.9988 41.7157 36.2289 42.0221 36.5399 42.2376C37.1555 42.6659 37.9975 42.5777 38.6185 42.2085C39.2678 41.8202 39.7033 41.1628 40.0252 40.4954C40.3708 39.7706 40.6008 39.0005 40.709 38.2066L40.5272 38.2012C40.4099 39.045 40.148 39.8743 39.7534 40.6281C39.4278 41.2474 38.9795 41.8502 38.3303 42.1539C38.0157 42.3013 37.6574 42.3694 37.31 42.3322C36.9427 42.2921 36.6226 42.1148 36.3689 41.8502C36.1152 41.5874 35.9134 41.271 35.7315 40.9564C35.5405 40.6236 35.3769 40.2744 35.2441 39.9143C35.0459 39.3742 34.9149 38.8113 34.8586 38.2412C34.7967 38.2448 34.7367 38.2503 34.6758 38.2557Z" fill="#FFA559"/>
<path d="M31.9088 53.0655H32.0962C31.9843 52.5527 31.8897 52.0362 31.817 51.5179C31.4323 48.8154 31.5633 46.0429 32.1962 43.3887C32.1171 43.4823 32.0361 43.5705 31.9461 43.6587C31.9461 43.6606 31.9443 43.6606 31.9443 43.6624C31.8097 44.2689 31.6997 44.8827 31.6169 45.501C31.2787 48.0143 31.3778 50.584 31.9088 53.0655Z" fill="#FFA559"/>
<path d="M107.883 68.8977C107.943 72.2767 109.077 75.1201 110.094 77.6589C111.048 80.0449 111.949 82.3009 111.949 84.8452H118.015C118.015 81.1315 116.8 78.0908 115.726 75.4075C114.884 73.3006 114.138 71.4311 113.976 69.416C113.943 68.9932 113.935 68.5631 113.958 68.1221C114.073 65.9034 114.663 64.5412 115.41 62.8163C116.446 60.423 118.098 57.2077 117.487 53.0676L111.671 51.9609C111.671 56.1892 110.782 58.237 109.843 60.4039C109.012 62.3216 108.071 64.4939 107.898 67.8065C107.881 68.1766 107.875 68.5404 107.883 68.8977Z" fill="#8E935F"/>
<path d="M91.313 84.8442H97.3799C97.3799 76.7223 99.7223 71.5311 102.595 67.6747C104.167 65.5624 105.898 63.8492 107.492 62.2734C110.607 59.1927 113.547 56.282 113.547 51.9609H107.48C107.48 53.6686 105.942 55.2717 103.225 57.9615C101.074 60.0883 98.4565 62.6789 96.236 66.2116C95.9605 66.649 95.6904 67.1018 95.4285 67.5683C92.6588 72.5259 91.313 78.1772 91.313 84.8442Z" fill="#8E935F"/>
<path d="M97.37 84.8438H91.2958C91.2958 85.2666 88.7615 85.3602 88.6206 86.1104H97.5309C97.5309 86.1104 97.6437 85.403 97.37 84.8438Z" fill="#3F3C39"/>
<path d="M118.053 84.8438H111.979C111.979 85.2666 109.445 85.3602 109.304 86.1104H118.214C118.214 86.1104 118.327 85.403 118.053 84.8438Z" fill="#3F3C39"/>
<path d="M107.047 44.4979C107.057 44.5607 107.067 44.6207 107.082 44.6816C107.163 45.0235 107.339 45.3163 107.547 45.5091C107.532 45.5955 107.519 45.6837 107.508 45.7719C107.498 45.8328 107.489 45.8928 107.482 45.9556C107.434 46.3138 107.401 46.6803 107.376 47.0458C107.372 47.1068 107.368 47.1686 107.365 47.2295C107.343 47.5969 107.33 47.9651 107.327 48.3198C107.325 48.3825 107.323 48.4425 107.323 48.5034V48.5362C107.31 50.4903 107.505 52.1043 107.505 52.1043L108.829 52.9445L117.176 58.2367C117.599 56.5581 117.689 55.1132 117.588 53.8875C117.296 50.3448 115.399 48.6517 115.272 48.5416C115.27 48.5398 115.267 48.538 115.265 48.5362C115.265 48.5362 115.272 48.5253 115.283 48.5034C115.305 48.4689 115.342 48.4062 115.393 48.3198C115.528 48.0915 115.759 47.7005 116.041 47.2295C116.075 47.1686 116.111 47.1086 116.147 47.0458C116.349 46.7057 116.57 46.3347 116.796 45.9556C116.831 45.8946 116.868 45.8328 116.904 45.7719C117.127 45.4009 117.347 45.0272 117.555 44.6816C117.592 44.6189 117.629 44.5589 117.665 44.4979C117.723 44.4025 117.779 44.3088 117.835 44.2188C118.024 43.9023 118.191 43.6232 118.324 43.4077C118.367 43.3395 118.403 43.2777 118.436 43.224C118.544 43.0494 118.608 42.9485 118.616 42.9466L114.218 42.1337L113.224 41.9501L108.569 41.0898L108.291 41.9501L108.232 42.1337L108.148 42.3947C107.777 42.6557 107.511 42.9367 107.335 43.224C107.297 43.2849 107.261 43.3449 107.232 43.4077C107.178 43.5141 107.138 43.6205 107.109 43.7259C107.029 43.9942 107.014 44.2561 107.047 44.4979Z" fill="#FF6000"/>
<path d="M107.505 52.1072L108.829 52.9474L117.589 53.8903C117.297 50.3477 115.399 48.6546 115.273 48.5445C115.271 48.5427 115.267 48.5409 115.265 48.5391H107.324C107.311 50.4932 107.505 52.1072 107.505 52.1072Z" fill="white"/>
<path d="M107.883 68.8977L113.977 69.416C113.944 68.9932 113.936 68.5631 113.959 68.1221C114.074 65.9034 114.664 64.5412 115.411 62.8163C116.447 60.423 118.099 57.2077 117.488 53.0676L111.672 51.9609C111.672 56.1892 110.783 58.237 109.844 60.4039C109.013 62.3216 108.072 64.4939 107.899 67.8065C107.881 68.1766 107.875 68.5404 107.883 68.8977Z" fill="white"/>
<path d="M96.2368 66.2116L102.596 67.6747C104.168 65.5624 105.899 63.8492 107.493 62.2734C110.608 59.1927 113.548 56.282 113.548 51.9609H107.481C107.481 53.6686 105.943 55.2717 103.226 57.9615C101.074 60.0883 98.4573 62.678 96.2368 66.2116Z" fill="white"/>
<path d="M110.275 59.1941C110.747 57.8729 111.028 56.4843 111.107 55.084" stroke="#3F3C39" stroke-width="0.2022" stroke-miterlimit="10" stroke-linecap="round" stroke-linejoin="round"/>
<path d="M110.539 55.7372C109.874 55.268 109.034 55.0516 108.225 55.1408" stroke="#3F3C39" stroke-width="0.2022" stroke-miterlimit="10" stroke-linecap="round" stroke-linejoin="round"/>
<path d="M111.758 56.0186C112.73 55.7776 113.753 55.7476 114.738 55.9304" stroke="#3F3C39" stroke-width="0.2022" stroke-miterlimit="10" stroke-linecap="round" stroke-linejoin="round"/>
<path d="M100.107 24.8065C99.9581 24.7401 99.849 24.5955 99.8354 24.421C99.7908 23.8408 99.9854 23.2807 100.383 22.8433C100.781 22.4041 101.338 22.135 101.874 22.1232C102.128 22.1177 102.338 22.3187 102.343 22.5733C102.349 22.827 102.148 23.037 101.893 23.0425C101.614 23.0488 101.288 23.2125 101.063 23.4607C100.903 23.6362 100.72 23.9345 100.752 24.3509C100.771 24.6037 100.582 24.8247 100.328 24.8438C100.251 24.8511 100.175 24.8365 100.107 24.8065Z" fill="#8E935F"/>
<path d="M100.734 25.4667C100.585 25.4003 100.476 25.2557 100.462 25.0821C100.418 24.5019 100.612 23.9418 101.01 23.5035C101.408 23.0643 101.965 22.7951 102.501 22.7833C102.755 22.7779 102.965 22.9788 102.97 23.2334C102.976 23.4871 102.775 23.6972 102.521 23.7026C102.242 23.709 101.916 23.8727 101.691 24.1209C101.531 24.2973 101.348 24.5946 101.38 25.012C101.399 25.2648 101.21 25.4858 100.956 25.5049C100.877 25.5103 100.801 25.4967 100.734 25.4667Z" fill="#8E935F"/>
<path d="M101.347 26.1161C101.198 26.0498 101.089 25.9052 101.075 25.7315C101.031 25.1514 101.225 24.5912 101.622 24.1539C102.02 23.7147 102.577 23.4455 103.113 23.4337C103.367 23.4282 103.577 23.6292 103.582 23.8838C103.588 24.1375 103.387 24.3475 103.133 24.353C102.854 24.3594 102.528 24.523 102.303 24.7713C102.143 24.9477 101.96 25.245 101.992 25.6615C102.011 25.9143 101.822 26.1352 101.568 26.1543C101.491 26.1598 101.415 26.1452 101.347 26.1161Z" fill="#8E935F"/>
<path d="M101.96 26.7675C101.811 26.7011 101.702 26.5565 101.688 26.3819C101.644 25.8027 101.838 25.2416 102.235 24.8043C102.633 24.3651 103.191 24.0959 103.726 24.0841C103.98 24.0786 104.19 24.2796 104.195 24.5333C104.201 24.787 104 24.997 103.746 25.0034C103.467 25.0098 103.141 25.1734 102.916 25.4217C102.757 25.5972 102.573 25.8954 102.605 26.3119C102.624 26.5647 102.435 26.7857 102.181 26.8047C102.103 26.8111 102.028 26.7975 101.96 26.7675Z" fill="#8E935F"/>
<path d="M102.942 28.1559C102.892 28.1341 102.846 28.1023 102.804 28.0614C102.625 27.8822 102.625 27.5912 102.804 27.4112C103.404 26.8111 103.344 26.0045 103.343 25.9972C103.318 25.7444 103.503 25.5198 103.755 25.4944C104.008 25.4698 104.233 25.6544 104.258 25.9063C104.263 25.9563 104.369 27.1466 103.455 28.0604C103.316 28.1996 103.112 28.2314 102.942 28.1559Z" fill="#8E935F"/>
<path d="M99.5537 25.6341C99.9629 25.2504 99.7429 24.5793 99.8365 24.1019C99.9302 23.6246 101.902 25.2831 101.902 25.2831C101.902 25.2831 102.595 25.8114 102.606 26.3097C102.617 26.808 103.038 27.2663 103.166 26.8881C103.294 26.5098 104.383 26.728 103.877 27.5118C103.372 28.2957 102.539 28.8831 102.539 28.8831L99.5537 25.6341Z" fill="#8E935F"/>
<path d="M101.97 22.9512C101.251 23.1767 100.757 23.5413 100.803 24.5743" stroke="#3F3C39" stroke-width="0.2022" stroke-miterlimit="10" stroke-linecap="round" stroke-linejoin="round"/>
<path d="M102.668 23.5664C101.949 23.7919 101.455 24.1566 101.502 25.1895" stroke="#3F3C39" stroke-width="0.2022" stroke-miterlimit="10" stroke-linecap="round" stroke-linejoin="round"/>
<path d="M103.373 24.2383C102.654 24.4638 102.16 24.8284 102.206 25.8614" stroke="#3F3C39" stroke-width="0.2022" stroke-miterlimit="10" stroke-linecap="round" stroke-linejoin="round"/>
<path d="M100.522 24.7988C100.777 24.9789 101.032 25.1598 101.259 25.3744C101.485 25.5881 101.685 25.8382 101.805 26.1264C101.964 26.5092 101.974 26.9521 101.832 27.3412" stroke="#3F3C39" stroke-width="0.2022" stroke-miterlimit="10" stroke-linecap="round" stroke-linejoin="round"/>
<path d="M95.1923 38.1868C96.6781 41.7604 99.9044 43.077 103.275 43.5217C105.468 43.8118 107.723 43.7326 109.6 43.669C110.39 43.6399 111.137 43.6135 111.803 43.6135C115.805 43.6135 119.209 44.2937 121.586 45.5276C122.479 45.9886 123.229 46.5297 123.81 47.1416C124.78 48.1655 125.239 49.344 125.169 50.6434C124.961 54.5771 120.715 57.4987 120.672 57.5278L123.11 61.2041C123.362 61.0386 129.246 57.0658 129.575 50.878C129.709 48.3574 128.823 46.0159 127.011 44.1055C126.113 43.1607 125.028 42.346 123.761 41.6712C120.729 40.0445 116.677 39.2007 111.803 39.2007C111.06 39.2007 110.277 39.2279 109.446 39.2579C107.697 39.3189 106.079 39.348 104.665 39.2416C101.996 39.0397 100.04 38.3559 99.2651 36.4936C98.1994 33.9258 101.437 29.9639 102.655 28.7782L99.587 25.6074C98.8859 26.2858 92.7899 32.4054 95.1923 38.1868Z" fill="#8E935F"/>
<path d="M118.264 61.6277C118.5 61.6914 118.753 61.5695 118.846 61.3367C119.002 60.9466 119.294 60.6684 119.608 60.6111C119.987 60.5411 120.331 60.8139 120.553 61.0548C120.737 61.2531 121.047 61.2658 121.246 61.083C121.445 60.8994 121.458 60.5893 121.274 60.3902C120.724 59.7936 120.069 59.529 119.43 59.6463C118.788 59.7646 118.215 60.2719 117.935 60.9721C117.834 61.2231 117.956 61.5086 118.208 61.6095C118.226 61.6168 118.245 61.6223 118.264 61.6277Z" fill="#8E935F"/>
<path d="M117.686 60.9481C117.922 61.0117 118.175 60.8899 118.268 60.6571C118.424 60.267 118.716 59.9888 119.03 59.9315C119.409 59.8615 119.754 60.1342 119.977 60.3752C120.16 60.5744 120.47 60.5871 120.669 60.4034C120.869 60.2197 120.881 59.9097 120.698 59.7105C120.147 59.1131 119.492 58.8494 118.853 58.9667C118.211 59.0849 117.638 59.5923 117.358 60.2925C117.257 60.5434 117.379 60.829 117.631 60.9299C117.649 60.9363 117.668 60.9426 117.686 60.9481Z" fill="#8E935F"/>
<path d="M117.108 60.2743C117.345 60.3379 117.597 60.2161 117.69 59.9833C117.847 59.5932 118.139 59.315 118.452 59.2577C118.832 59.1876 119.176 59.4604 119.399 59.7014C119.583 59.9005 119.893 59.9133 120.092 59.7296C120.291 59.5459 120.304 59.2358 120.12 59.0367C119.57 58.4393 118.914 58.1756 118.276 58.2929C117.634 58.4111 117.061 58.9185 116.781 59.6186C116.68 59.8696 116.802 60.1551 117.054 60.2561C117.071 60.2624 117.089 60.2688 117.108 60.2743Z" fill="#8E935F"/>
<path d="M116.531 59.5946C116.768 59.6582 117.02 59.5364 117.113 59.3036C117.27 58.9135 117.561 58.6353 117.875 58.578C118.255 58.508 118.599 58.7808 118.822 59.0217C119.005 59.2209 119.315 59.2327 119.515 59.0499C119.714 58.8662 119.726 58.5561 119.543 58.357C118.993 57.7596 118.337 57.4959 117.699 57.6132C117.057 57.7314 116.484 58.2388 116.204 58.939C116.103 59.1899 116.226 59.4755 116.477 59.5764C116.494 59.5837 116.512 59.59 116.531 59.5946Z" fill="#8E935F"/>
<path d="M123.108 61.207C121.902 62.0645 121.071 61.8254 120.466 60.967C119.861 60.1086 118.64 57.7126 118.64 57.7126C119.85 58.0918 120.681 57.5234 120.681 57.5234L123.108 61.207Z" fill="#8E935F"/>
<path d="M120.136 59.8564C118.991 59.2017 118.109 60.6612 118.109 60.6612" stroke="#3F3C39" stroke-width="0.2157" stroke-miterlimit="10" stroke-linecap="round" stroke-linejoin="round"/>
<path d="M119.555 59.1885C118.411 58.5338 117.528 59.9932 117.528 59.9932" stroke="#3F3C39" stroke-width="0.2157" stroke-miterlimit="10" stroke-linecap="round" stroke-linejoin="round"/>
<path d="M118.975 58.5205C117.831 57.8658 116.948 59.3252 116.948 59.3252" stroke="#3F3C39" stroke-width="0.2157" stroke-miterlimit="10" stroke-linecap="round" stroke-linejoin="round"/>
<path d="M103.275 43.5183C104.562 43.6892 105.869 43.7311 107.11 43.7238C107.985 43.7202 108.825 43.6929 109.601 43.6647C110.391 43.6356 111.137 43.6092 111.803 43.6092C114.022 43.6092 116.057 43.8184 117.834 44.2157C118.215 44.2985 118.584 44.3921 118.941 44.4949C119.147 44.554 119.347 44.614 119.542 44.6786C120.287 44.9213 120.971 45.2023 121.586 45.5224L122.063 44.6786L122.165 44.4949L122.781 43.4046L122.884 43.2209L123.499 42.1307L123.602 41.947L123.76 41.6678C123.208 41.3714 122.623 41.1013 122.004 40.8567C121.844 40.794 121.683 40.7322 121.519 40.6731C120.198 40.1948 118.734 39.8292 117.141 39.5828C116.686 39.511 116.22 39.4509 115.745 39.3991C114.5 39.2645 113.184 39.1973 111.802 39.1973C111.059 39.1973 110.276 39.2245 109.445 39.2545C107.696 39.3155 106.079 39.3446 104.664 39.2382L104.61 39.4L104.551 39.5837L104.197 40.674L104.137 40.8577L103.783 41.9479L103.724 42.1316L103.369 43.2219L103.31 43.4055L103.275 43.5183Z" fill="#FF6000"/>
<path d="M114.994 35.3436C115.209 36.3229 116.175 36.9431 117.155 36.7285C118.134 36.5139 118.754 35.5473 118.54 34.568C118.325 33.5886 117.358 32.9685 116.379 33.1831C115.401 33.3977 114.781 34.3652 114.994 35.3436Z" fill="#3F3C39"/>
<path d="M115.328 34.8759C115.328 35.3069 115.565 35.6552 115.856 35.6552C116.148 35.6552 116.385 35.306 116.385 34.8759C116.385 34.4449 116.148 34.0957 115.856 34.0957C115.565 34.0966 115.328 34.4458 115.328 34.8759Z" fill="#CE6A6A"/>
<path d="M112.326 33.8435C112.476 34.5273 113.151 34.9602 113.835 34.811C114.519 34.661 114.952 33.9854 114.803 33.3016C114.652 32.6178 113.977 32.185 113.293 32.3341C112.609 32.4832 112.176 33.1597 112.326 33.8435Z" fill="#3F3C39"/>
<path d="M113.388 33.9765C113.647 33.9765 113.857 33.8346 113.857 33.6591C113.857 33.4836 113.647 33.3418 113.388 33.3418C113.128 33.3418 112.918 33.4836 112.918 33.6591C112.918 33.8346 113.128 33.9765 113.388 33.9765Z" fill="#CE6A6A"/>
<path d="M104.552 39.5802H117.143C116.687 39.5083 116.221 39.4483 115.746 39.3965H104.611L104.552 39.5802Z" fill="#FFA559"/>
<path d="M104.14 40.8556H122.006C121.846 40.7928 121.684 40.731 121.52 40.6719H104.198L104.14 40.8556Z" fill="#FFA559"/>
<path d="M103.726 42.1251H123.499L123.603 41.9414H103.784L103.726 42.1251Z" fill="#FFA559"/>
<path d="M103.312 43.4005H122.781L122.884 43.2168H103.37L103.312 43.4005Z" fill="#FFA559"/>
<path d="M122.166 44.4941H118.941C119.148 44.5532 119.348 44.6133 119.542 44.6778H122.063L122.166 44.4941Z" fill="#FFA559"/>
<path d="M107.047 44.4941C107.056 44.5569 107.067 44.6169 107.082 44.6778H117.554C117.591 44.6151 117.628 44.5551 117.664 44.4941H107.047Z" fill="#FFA559"/>
<path d="M107.483 45.9493H116.796C116.831 45.8884 116.868 45.8265 116.904 45.7656H107.508C107.499 45.8265 107.49 45.8875 107.483 45.9493Z" fill="#FFA559"/>
<path d="M107.365 47.2227H116.04C116.074 47.1618 116.11 47.1018 116.146 47.0391H107.376C107.373 47.1 107.369 47.1627 107.365 47.2227Z" fill="#FFA559"/>
<path d="M107.323 48.4981H115.283C115.305 48.4636 115.342 48.4008 115.393 48.3145H107.326C107.325 48.3772 107.323 48.4381 107.323 48.4981Z" fill="#FFA559"/>
<path d="M115.716 39.4005C112.457 44.1735 108.39 42.9768 110.408 39.2268C113.519 39.1159 115.716 39.4005 115.716 39.4005Z" fill="#8E935F"/>
<path d="M112.04 33.9972C111.471 35.0156 110.687 36.3705 111.184 37.0616C111.342 37.2816 111.71 37.4153 111.71 37.4153L111.156 39.2885L113.811 40.0868L115.018 35.8504L114.568 34.3364C114.568 34.3364 112.561 33.0752 112.04 33.9972Z" fill="#8E935F"/>
<path d="M114.719 36.9021C113.877 36.5157 113.991 35.7891 113.991 35.7891C114.728 35.6282 114.649 35.2381 114.467 35.0471C114.285 34.8553 113.985 35.2508 113.985 35.2508C112.828 35.3427 112.364 33.7186 112.364 33.7186C113.393 33.2904 115.635 33.8796 115.835 34.6352C116.035 35.3908 114.723 36.863 114.723 36.863" fill="#3F3C39"/>
<path d="M111.71 37.418C112.39 37.6753 113.061 37.4534 113.061 37.4534C113.061 37.4534 112.448 38.1954 111.569 37.8944L111.71 37.418Z" fill="#3F3C39"/>
<path d="M112.696 35.1672C112.635 35.21 112.555 35.2273 112.481 35.2136C112.406 35.2 112.339 35.1545 112.296 35.0918" stroke="#3F3C39" stroke-width="0.2022" stroke-miterlimit="10" stroke-linecap="round" stroke-linejoin="round"/>
<path d="M111.864 34.9364C111.799 34.9709 111.719 34.9746 111.652 34.9464C111.584 34.9182 111.531 34.8591 111.511 34.7891" stroke="#3F3C39" stroke-width="0.2022" stroke-miterlimit="10" stroke-linecap="round" stroke-linejoin="round"/>
<path d="M111.911 35.2715C111.827 35.3924 111.755 35.5207 111.694 35.6543" stroke="#3F3C39" stroke-width="0.2022" stroke-miterlimit="10" stroke-linecap="round" stroke-linejoin="round"/>
<path d="M111.638 36.1069C111.836 36.1296 112.041 36.0896 112.217 35.9941" stroke="#3F3C39" stroke-width="0.2022" stroke-miterlimit="10" stroke-linecap="round" stroke-linejoin="round"/>
<path d="M107.185 43.5738C107.291 43.2082 107.536 42.8854 107.86 42.6854L108.242 41.1777" stroke="#3F3C39" stroke-width="0.2022" stroke-miterlimit="10" stroke-linecap="round" stroke-linejoin="round"/>
<path d="M117.738 44.1487L115.938 43.7422" stroke="#3F3C39" stroke-width="0.2022" stroke-miterlimit="10" stroke-linecap="round" stroke-linejoin="round"/>
<rect x="10" y="86" width="129" height="56" fill="#843D3D"/>
</g>
<path d="M23.722 108.18C21.01 108.18 19.012 107.604 17.728 106.452C16.444 105.3 15.802 103.656 15.802 101.52C15.802 99.372 16.444 97.674 17.728 96.426C19.012 95.178 21.01 94.554 23.722 94.554C27.514 94.554 30.052 95.856 31.336 98.46C30.256 98.832 28.99 99.39 27.538 100.134C27.19 99.462 26.638 98.964 25.882 98.64C25.138 98.316 24.376 98.154 23.596 98.154C22.444 98.154 21.586 98.46 21.022 99.072C20.458 99.672 20.176 100.416 20.176 101.304C20.176 102.264 20.476 103.05 21.076 103.662C21.688 104.262 22.618 104.562 23.866 104.562C24.862 104.562 25.654 104.4 26.242 104.076C26.83 103.74 27.262 103.212 27.538 102.492C28.522 103.02 29.782 103.614 31.318 104.274C30.718 105.726 29.716 106.74 28.312 107.316C26.908 107.892 25.378 108.18 23.722 108.18ZM38.5785 108.18C36.5265 108.18 35.0145 107.712 34.0425 106.776C33.0825 105.828 32.6025 104.586 32.6025 103.05C32.6025 101.55 33.0825 100.332 34.0425 99.396C35.0145 98.46 36.5265 97.992 38.5785 97.992C39.9585 97.992 41.1105 98.22 42.0345 98.676C42.9705 99.12 43.6605 99.726 44.1045 100.494C44.5485 101.25 44.7705 102.102 44.7705 103.05C44.7705 104.598 44.2545 105.84 43.2225 106.776C42.2025 107.712 40.6545 108.18 38.5785 108.18ZM38.6505 105.12C39.4305 105.12 40.0125 104.934 40.3965 104.562C40.7805 104.19 40.9725 103.692 40.9725 103.068C40.9725 102.48 40.7805 102 40.3965 101.628C40.0125 101.244 39.4305 101.052 38.6505 101.052C37.8705 101.052 37.3005 101.238 36.9405 101.61C36.5805 101.982 36.4005 102.468 36.4005 103.068C36.4005 103.692 36.5805 104.19 36.9405 104.562C37.3005 104.934 37.8705 105.12 38.6505 105.12ZM59.9864 108C60.0824 106.428 60.1304 104.802 60.1304 103.122C60.1304 102.582 59.9924 102.162 59.7164 101.862C59.4524 101.55 59.0984 101.394 58.6544 101.394C58.2464 101.394 57.8924 101.574 57.5924 101.934C57.3044 102.294 57.1604 102.816 57.1604 103.5V103.482C57.1604 105.606 57.1904 107.112 57.2504 108H53.2004C53.2724 106.236 53.3084 104.61 53.3084 103.122C53.3084 102.594 53.1764 102.174 52.9124 101.862C52.6604 101.55 52.3364 101.394 51.9404 101.394C51.5204 101.394 51.1664 101.574 50.8784 101.934C50.6024 102.282 50.4404 102.762 50.3924 103.374C50.3684 104.286 50.3564 104.934 50.3564 105.318C50.3564 106.134 50.3804 107.028 50.4284 108H46.1264C46.2224 106.272 46.2704 104.64 46.2704 103.104C46.2704 101.568 46.2224 99.924 46.1264 98.172C46.9184 98.208 47.5244 98.226 47.9444 98.226C48.3884 98.226 48.9944 98.208 49.7624 98.172L50.3024 100.836C50.5784 99.864 51.0164 99.15 51.6164 98.694C52.2164 98.226 52.9064 97.992 53.6864 97.992C54.6224 97.992 55.3844 98.25 55.9724 98.766C56.5724 99.282 56.9444 99.954 57.0884 100.782C57.3644 99.93 57.8264 99.252 58.4744 98.748C59.1224 98.244 59.8604 97.992 60.6884 97.992C61.7684 97.992 62.6144 98.358 63.2264 99.09C63.8384 99.81 64.1444 100.8 64.1444 102.06V105.048C64.1444 106.404 64.1564 107.388 64.1804 108H59.9864ZM79.7442 108C79.8402 106.428 79.8882 104.802 79.8882 103.122C79.8882 102.582 79.7502 102.162 79.4742 101.862C79.2102 101.55 78.8562 101.394 78.4122 101.394C78.0042 101.394 77.6502 101.574 77.3502 101.934C77.0622 102.294 76.9182 102.816 76.9182 103.5V103.482C76.9182 105.606 76.9482 107.112 77.0082 108H72.9582C73.0302 106.236 73.0662 104.61 73.0662 103.122C73.0662 102.594 72.9342 102.174 72.6702 101.862C72.4182 101.55 72.0942 101.394 71.6982 101.394C71.2782 101.394 70.9242 101.574 70.6362 101.934C70.3602 102.282 70.1982 102.762 70.1502 103.374C70.1262 104.286 70.1142 104.934 70.1142 105.318C70.1142 106.134 70.1382 107.028 70.1862 108H65.8842C65.9802 106.272 66.0282 104.64 66.0282 103.104C66.0282 101.568 65.9802 99.924 65.8842 98.172C66.6762 98.208 67.2822 98.226 67.7022 98.226C68.1462 98.226 68.7522 98.208 69.5202 98.172L70.0602 100.836C70.3362 99.864 70.7742 99.15 71.3742 98.694C71.9742 98.226 72.6642 97.992 73.4442 97.992C74.3802 97.992 75.1422 98.25 75.7302 98.766C76.3302 99.282 76.7022 99.954 76.8462 100.782C77.1222 99.93 77.5842 99.252 78.2322 98.748C78.8802 98.244 79.6182 97.992 80.4462 97.992C81.5262 97.992 82.3722 98.358 82.9842 99.09C83.5962 99.81 83.9022 100.8 83.9022 102.06V105.048C83.9022 106.404 83.9142 107.388 83.9382 108H79.7442ZM96.622 98.172C96.538 99.684 96.496 101.316 96.496 103.068C96.496 104.832 96.538 106.476 96.622 108C95.854 107.964 95.248 107.946 94.804 107.946C94.384 107.946 93.778 107.964 92.986 108L92.464 105.354C92.188 106.314 91.756 107.028 91.168 107.496C90.58 107.952 89.896 108.18 89.116 108.18C88.396 108.18 87.772 108.024 87.244 107.712C86.716 107.388 86.314 106.956 86.038 106.416C85.774 105.876 85.642 105.27 85.642 104.598V102.006C85.642 100.41 85.612 99.132 85.552 98.172H89.602C89.53 99.936 89.494 101.682 89.494 103.41C89.494 103.938 89.62 104.358 89.872 104.67C90.136 104.982 90.466 105.138 90.862 105.138C91.234 105.138 91.558 104.976 91.834 104.652C92.122 104.316 92.296 103.86 92.356 103.284V102.87C92.38 101.934 92.392 101.286 92.392 100.926C92.392 100.098 92.368 99.18 92.32 98.172H96.622ZM105.088 108C105.16 106.236 105.196 104.61 105.196 103.122C105.196 102.594 105.064 102.174 104.8 101.862C104.548 101.55 104.224 101.394 103.828 101.394C103.432 101.394 103.096 101.574 102.82 101.934C102.544 102.282 102.382 102.762 102.334 103.374C102.31 104.286 102.298 104.934 102.298 105.318C102.298 106.134 102.322 107.028 102.37 108H98.0677C98.1637 106.272 98.2117 104.64 98.2117 103.104C98.2117 101.568 98.1637 99.924 98.0677 98.172C98.8597 98.208 99.4657 98.226 99.8857 98.226C100.33 98.226 100.936 98.208 101.704 98.172L102.226 100.818C102.502 99.858 102.934 99.15 103.522 98.694C104.11 98.226 104.794 97.992 105.574 97.992C106.294 97.992 106.918 98.154 107.446 98.478C107.974 98.79 108.37 99.216 108.634 99.756C108.91 100.296 109.048 100.902 109.048 101.574V104.166C109.048 105.762 109.078 107.04 109.138 108H105.088ZM112.995 97.11C112.239 97.11 111.675 96.924 111.303 96.552C110.943 96.18 110.763 95.694 110.763 95.094C110.763 94.506 110.943 94.02 111.303 93.636C111.675 93.252 112.239 93.06 112.995 93.06C113.715 93.06 114.267 93.258 114.651 93.654C115.035 94.038 115.227 94.518 115.227 95.094C115.227 95.694 115.041 96.18 114.669 96.552C114.297 96.924 113.739 97.11 112.995 97.11ZM110.907 108C110.991 106.068 111.033 104.472 111.033 103.212C111.033 101.712 110.985 100.032 110.889 98.172H115.209C115.113 99.96 115.065 101.64 115.065 103.212C115.065 104.532 115.107 106.128 115.191 108H110.907ZM124.995 101.394C123.891 101.322 122.883 101.268 121.971 101.232L121.953 103.14C121.953 103.788 122.091 104.298 122.367 104.67C122.655 105.03 123.159 105.21 123.879 105.21C124.155 105.21 124.419 105.186 124.671 105.138C124.623 105.582 124.599 106.032 124.599 106.488C124.599 106.704 124.611 107.196 124.635 107.964C124.107 108.06 123.663 108.12 123.303 108.144C122.943 108.168 122.475 108.18 121.899 108.18C120.495 108.18 119.499 107.844 118.911 107.172C118.335 106.488 118.047 105.54 118.047 104.328L118.065 101.286C117.501 101.31 116.913 101.346 116.301 101.394V98.208C116.925 98.208 117.453 98.01 117.885 97.614C118.317 97.218 118.575 96.744 118.659 96.192H123.555C122.943 97.032 122.265 97.704 121.521 98.208H124.995V101.394ZM137.914 98.172L137.5 99.216C136.36 102.252 135.166 105.18 133.918 108C133.27 109.44 132.334 110.592 131.11 111.456C129.886 112.332 128.35 112.752 126.502 112.716C126.274 111.72 126.082 110.94 125.926 110.376C125.782 109.824 125.59 109.266 125.35 108.702C126.01 108.858 126.628 108.936 127.204 108.936C128.14 108.936 128.884 108.738 129.436 108.342C129.004 107.058 128.494 105.678 127.906 104.202C127.318 102.726 126.466 100.716 125.35 98.172H129.616C129.76 98.772 129.958 99.468 130.21 100.26C130.462 101.052 130.714 101.814 130.966 102.546C131.038 102.774 131.152 103.122 131.308 103.59C131.476 104.046 131.608 104.43 131.704 104.742L132.172 103.32C133.072 100.716 133.606 99 133.774 98.172H137.914ZM56.3965 121.086C56.4205 121.698 56.6125 122.19 56.9725 122.562C57.3445 122.934 57.8905 123.12 58.6105 123.12C59.0065 123.12 59.3605 123.048 59.6725 122.904C59.9845 122.748 60.2725 122.52 60.5365 122.22C61.5565 122.616 62.7505 122.958 64.1185 123.246C63.7225 124.17 63.0505 124.89 62.1025 125.406C61.1665 125.922 59.9485 126.18 58.4485 126.18C56.4445 126.18 54.9625 125.712 54.0025 124.776C53.0425 123.84 52.5625 122.61 52.5625 121.086C52.5625 119.562 53.0425 118.332 54.0025 117.396C54.9625 116.46 56.4445 115.992 58.4485 115.992C59.9485 115.992 61.1665 116.25 62.1025 116.766C63.0505 117.282 63.7225 118.002 64.1185 118.926C63.0505 119.154 61.8565 119.496 60.5365 119.952C60.2725 119.652 59.9845 119.43 59.6725 119.286C59.3605 119.13 59.0065 119.052 58.6105 119.052C57.8905 119.052 57.3445 119.238 56.9725 119.61C56.6125 119.982 56.4205 120.474 56.3965 121.086ZM77.007 123.012C77.007 123.42 77.055 123.708 77.151 123.876C77.247 124.044 77.439 124.164 77.727 124.236L77.655 125.928C77.271 125.988 76.935 126.03 76.647 126.054C76.371 126.078 75.999 126.09 75.531 126.09C74.499 126.09 73.815 125.862 73.479 125.406C73.143 124.938 72.975 124.344 72.975 123.624V123.174C72.627 124.158 72.117 124.89 71.445 125.37C70.785 125.85 69.939 126.09 68.907 126.09C67.707 126.09 66.801 125.85 66.189 125.37C65.589 124.89 65.289 124.176 65.289 123.228C65.289 122.448 65.547 121.836 66.063 121.392C66.579 120.948 67.377 120.642 68.457 120.474C67.545 119.826 66.633 119.262 65.721 118.782C66.441 117.87 67.263 117.18 68.187 116.712C69.111 116.232 70.233 115.992 71.553 115.992C73.401 115.992 74.769 116.394 75.657 117.198C76.557 117.99 77.007 119.214 77.007 120.87V123.012ZM71.931 119.16C71.319 119.16 70.779 119.262 70.311 119.466C69.843 119.67 69.423 119.976 69.051 120.384C69.771 120.3 70.671 120.258 71.751 120.258C72.195 120.258 72.507 120.204 72.687 120.096C72.867 119.988 72.957 119.85 72.957 119.682C72.957 119.538 72.867 119.418 72.687 119.322C72.507 119.214 72.255 119.16 71.931 119.16ZM70.041 123.156C70.713 123.156 71.319 123.03 71.859 122.778C72.399 122.514 72.771 122.172 72.975 121.752V121.284C72.687 121.428 72.369 121.542 72.021 121.626C71.673 121.698 71.253 121.77 70.761 121.842L70.113 121.95C69.441 122.082 69.105 122.31 69.105 122.634C69.105 122.982 69.417 123.156 70.041 123.156ZM82.9868 118.836C83.4908 117.024 84.7448 116.118 86.7488 116.118C87.0968 116.118 87.4328 116.142 87.7568 116.19L87.1808 120.222C86.3168 119.898 85.6088 119.736 85.0568 119.736C84.3728 119.736 83.8688 119.94 83.5448 120.348C83.2208 120.756 83.0588 121.302 83.0588 121.986V121.968L83.0408 123.156C83.0408 124.008 83.0648 124.956 83.1128 126H78.8108C78.9068 124.272 78.9548 122.64 78.9548 121.104C78.9548 119.568 78.9068 117.924 78.8108 116.172C79.6028 116.208 80.2088 116.226 80.6288 116.226C81.0728 116.226 81.6788 116.208 82.4468 116.172L82.9868 118.836ZM98.1766 121.5H92.3086C92.4046 122.028 92.6386 122.46 93.0106 122.796C93.3946 123.12 93.9346 123.282 94.6306 123.282C95.1346 123.282 95.6086 123.186 96.0526 122.994C96.4966 122.79 96.8506 122.508 97.1146 122.148C97.9186 122.544 98.9866 122.97 100.319 123.426C99.9466 124.266 99.2686 124.938 98.2846 125.442C97.3126 125.934 96.0406 126.18 94.4686 126.18C92.4286 126.18 90.9166 125.712 89.9326 124.776C88.9606 123.828 88.4746 122.586 88.4746 121.05C88.4746 119.55 88.9606 118.332 89.9326 117.396C90.9046 116.46 92.4166 115.992 94.4686 115.992C95.6926 115.992 96.7546 116.196 97.6546 116.604C98.5546 117.012 99.2446 117.582 99.7246 118.314C100.205 119.034 100.445 119.862 100.445 120.798C100.445 121.11 100.433 121.344 100.409 121.5H98.1766ZM94.7206 118.71C94.1206 118.71 93.6286 118.824 93.2446 119.052C92.8606 119.28 92.5906 119.592 92.4346 119.988H96.6826C96.5386 119.604 96.3046 119.298 95.9806 119.07C95.6566 118.83 95.2366 118.71 94.7206 118.71Z" fill="white"/>
</g>
<defs>
<clipPath id="clip0_3777_547">
<rect width="150" height="150" fill="white"/>
</clipPath>
<clipPath id="clip1_3777_547">
<rect x="12" y="12" width="126" height="126" rx="24" fill="white"/>
</clipPath>
</defs>
</svg>
