<svg width="150" height="150" viewBox="0 0 150 150" fill="none" xmlns="http://www.w3.org/2000/svg">
<g clip-path="url(#clip0_8661_689)">
<rect width="150" height="150" rx="13.4073" fill="white"/>
<rect width="150" height="118" transform="translate(0 -19)" fill="#E3E8ED"/>
<path d="M17 34.5C19.3774 34.5 21.7547 33.4821 23.4528 31.7857C25.1509 30.0893 26.1698 27.7143 26.1698 25C26.1698 30.4286 30.2453 34.5 35 34.5C32.6226 34.5 30.2453 35.5179 28.5472 37.2143C26.8491 38.9107 25.8302 41.2857 25.8302 44C25.8302 41.2857 24.8113 38.9107 23.1132 37.2143C21.7547 35.5179 19.3774 34.5 17 34.5Z" fill="white"/>
<path d="M10 16C11.717 16 13.434 15.25 14.6604 14C15.8868 12.75 16.6226 11 16.6226 9C16.6226 13 19.566 16 23 16C21.283 16 19.566 16.75 18.3396 18C17.1132 19.25 16.3774 21 16.3774 23C16.3774 21 15.6415 19.25 14.4151 18C13.434 16.75 11.717 16 10 16Z" fill="white" fill-opacity="0.74"/>
<path d="M29 13C30.1887 13 31.3774 12.4643 32.2264 11.5714C33.0755 10.6786 33.5849 9.42857 33.5849 8C33.5849 10.8571 35.6226 13 38 13C36.8113 13 35.6226 13.5357 34.7736 14.4286C33.9245 15.3214 33.4151 16.5714 33.4151 18C33.4151 16.5714 32.9057 15.3214 32.0566 14.4286C31.3774 13.5357 30.1887 13 29 13Z" fill="white" fill-opacity="0.8"/>
<text xmlns="http://www.w3.org/2000/svg" x="0" y="0" fill="black" text-anchor="middle" font-family="Gilroy, -apple-system, BlinkMacSystemFont, Oxygen, Ubuntu, Cantarell, 'Fira Sans', 'Droid Sans', 'Helvetica Neue', Arial, sans-serif" font-size="40" transform="translate(75 68)" ><tspan y="0" font-weight="600"><![CDATA[42]]></tspan></text>
<path d="M37.928 125.08L38.184 124.536C39.112 124.557 39.88 124.707 40.488 124.984C41.096 125.251 41.544 125.619 41.832 126.088C42.12 126.547 42.264 127.075 42.264 127.672C42.264 128.312 42.1093 128.883 41.8 129.384C41.5013 129.885 41.0587 130.28 40.472 130.568C39.8853 130.856 39.1493 131 38.264 131H29.848L30.776 124.84L29.848 119H37.96C39.0693 119 39.928 119.261 40.536 119.784C41.1547 120.296 41.464 121.005 41.464 121.912C41.464 122.403 41.3467 122.877 41.112 123.336C40.888 123.795 40.5147 124.184 39.992 124.504C39.48 124.813 38.792 125.005 37.928 125.08ZM32.536 130.312L31.496 129H37.704C38.28 129 38.7227 128.867 39.032 128.6C39.352 128.323 39.512 127.939 39.512 127.448C39.512 126.947 39.3307 126.552 38.968 126.264C38.6053 125.965 38.072 125.816 37.368 125.816H32.312V123.864H37.048C37.528 123.864 37.9227 123.731 38.232 123.464C38.552 123.187 38.712 122.803 38.712 122.312C38.712 121.939 38.5787 121.629 38.312 121.384C38.0453 121.128 37.6613 121 37.16 121H31.496L32.536 119.688L33.384 124.84L32.536 130.312ZM49.0365 131.24C47.9058 131.24 46.9138 131.043 46.0605 130.648C45.2072 130.243 44.5405 129.683 44.0605 128.968C43.5805 128.243 43.3405 127.405 43.3405 126.456C43.3405 125.496 43.5805 124.659 44.0605 123.944C44.5405 123.219 45.2072 122.659 46.0605 122.264C46.9138 121.859 47.9058 121.656 49.0365 121.656C50.1672 121.656 51.1592 121.859 52.0125 122.264C52.8658 122.659 53.5272 123.219 53.9965 123.944C54.4765 124.659 54.7165 125.496 54.7165 126.456C54.7165 127.405 54.4765 128.243 53.9965 128.968C53.5272 129.683 52.8658 130.243 52.0125 130.648C51.1592 131.043 50.1672 131.24 49.0365 131.24ZM49.0365 129.208C49.6552 129.208 50.1832 129.096 50.6205 128.872C51.0685 128.648 51.4098 128.333 51.6445 127.928C51.8898 127.512 52.0125 127.021 52.0125 126.456C52.0125 125.88 51.8898 125.389 51.6445 124.984C51.4098 124.568 51.0685 124.248 50.6205 124.024C50.1832 123.8 49.6552 123.688 49.0365 123.688C48.4285 123.688 47.9005 123.8 47.4525 124.024C47.0045 124.248 46.6578 124.568 46.4125 124.984C46.1778 125.389 46.0605 125.88 46.0605 126.456C46.0605 127.021 46.1778 127.512 46.4125 127.928C46.6578 128.333 47.0045 128.648 47.4525 128.872C47.9005 129.096 48.4285 129.208 49.0365 129.208ZM61.4896 131.24C60.359 131.24 59.367 131.043 58.5136 130.648C57.6603 130.243 56.9936 129.683 56.5136 128.968C56.0336 128.243 55.7936 127.405 55.7936 126.456C55.7936 125.496 56.0336 124.659 56.5136 123.944C56.9936 123.219 57.6603 122.659 58.5136 122.264C59.367 121.859 60.359 121.656 61.4896 121.656C62.6203 121.656 63.6123 121.859 64.4656 122.264C65.319 122.659 65.9803 123.219 66.4496 123.944C66.9296 124.659 67.1696 125.496 67.1696 126.456C67.1696 127.405 66.9296 128.243 66.4496 128.968C65.9803 129.683 65.319 130.243 64.4656 130.648C63.6123 131.043 62.6203 131.24 61.4896 131.24ZM61.4896 129.208C62.1083 129.208 62.6363 129.096 63.0736 128.872C63.5216 128.648 63.863 128.333 64.0976 127.928C64.343 127.512 64.4656 127.021 64.4656 126.456C64.4656 125.88 64.343 125.389 64.0976 124.984C63.863 124.568 63.5216 124.248 63.0736 124.024C62.6363 123.8 62.1083 123.688 61.4896 123.688C60.8816 123.688 60.3536 123.8 59.9056 124.024C59.4576 124.248 59.111 124.568 58.8656 124.984C58.631 125.389 58.5136 125.88 58.5136 126.456C58.5136 127.021 58.631 127.512 58.8656 127.928C59.111 128.333 59.4576 128.648 59.9056 128.872C60.3536 129.096 60.8816 129.208 61.4896 129.208ZM71.3988 128.792L70.6468 128.52L76.0548 121.896H78.9668L71.1588 131H68.7268V118.68H71.3988V128.792ZM73.4628 126.536L75.4308 125.016L79.2228 131H76.1667L73.4628 126.536ZM80.1486 121.8L81.4766 122.056L82.8206 121.8V131H80.1486V121.8ZM81.4766 120.856C80.9966 120.856 80.602 120.733 80.2926 120.488C79.994 120.232 79.8446 119.896 79.8446 119.48C79.8446 119.053 79.994 118.717 80.2926 118.472C80.602 118.216 80.9966 118.088 81.4766 118.088C81.9673 118.088 82.362 118.216 82.6606 118.472C82.9593 118.717 83.1086 119.053 83.1086 119.48C83.1086 119.896 82.9593 120.232 82.6606 120.488C82.362 120.733 81.9673 120.856 81.4766 120.856ZM84.4041 121.896H87.0761L87.6521 125.368V131H84.9801V124.968L84.4041 121.896ZM91.1241 121.656C91.9881 121.656 92.7241 121.832 93.3321 122.184C93.9401 122.525 94.4041 123.016 94.7241 123.656C95.0441 124.296 95.2041 125.059 95.2041 125.944V131H92.5321V126.344C92.5321 125.523 92.3348 124.904 91.9401 124.488C91.5455 124.061 90.9695 123.848 90.2121 123.848C89.7001 123.848 89.2468 123.965 88.8521 124.2C88.4681 124.424 88.1695 124.739 87.9561 125.144C87.7535 125.549 87.6521 126.035 87.6521 126.6L86.7721 126.136C86.8788 125.176 87.1348 124.365 87.5401 123.704C87.9455 123.043 88.4575 122.536 89.0761 122.184C89.6948 121.832 90.3775 121.656 91.1241 121.656ZM105.182 128.744V127.16L105.278 126.824V124.84L105.182 124.504V121.896H107.854V128.568C107.854 129.72 107.598 130.691 107.086 131.48C106.585 132.269 105.886 132.867 104.99 133.272C104.094 133.677 103.054 133.88 101.87 133.88C101.038 133.88 100.27 133.773 99.5661 133.56C98.8728 133.347 98.1901 133.021 97.5181 132.584V130.488C98.1688 130.989 98.8461 131.347 99.5501 131.56C100.265 131.773 100.985 131.88 101.71 131.88C102.83 131.88 103.689 131.619 104.286 131.096C104.883 130.573 105.182 129.789 105.182 128.744ZM101.038 130.168C100.195 130.168 99.4381 129.992 98.7661 129.64C98.1048 129.288 97.5821 128.792 97.1981 128.152C96.8141 127.512 96.6221 126.765 96.6221 125.912C96.6221 125.059 96.8141 124.317 97.1981 123.688C97.5821 123.048 98.1048 122.552 98.7661 122.2C99.4381 121.837 100.195 121.656 101.038 121.656C101.678 121.656 102.259 121.757 102.782 121.96C103.315 122.152 103.79 122.408 104.206 122.728C104.633 123.048 104.99 123.4 105.278 123.784C105.566 124.157 105.785 124.536 105.934 124.92C106.094 125.293 106.174 125.635 106.174 125.944C106.174 126.339 106.051 126.781 105.806 127.272C105.571 127.763 105.23 128.227 104.782 128.664C104.334 129.101 103.795 129.464 103.166 129.752C102.537 130.029 101.827 130.168 101.038 130.168ZM101.918 128.28C102.611 128.28 103.235 128.093 103.79 127.72C104.355 127.336 104.851 126.733 105.278 125.912C104.851 125.08 104.355 124.477 103.79 124.104C103.225 123.72 102.601 123.528 101.918 123.528C101.374 123.528 100.905 123.629 100.51 123.832C100.126 124.024 99.8275 124.301 99.6141 124.664C99.4115 125.016 99.3101 125.432 99.3101 125.912C99.3101 126.381 99.4115 126.797 99.6141 127.16C99.8168 127.512 100.115 127.789 100.51 127.992C100.905 128.184 101.374 128.28 101.918 128.28ZM119.789 128.136C119.789 128.787 119.597 129.347 119.213 129.816C118.839 130.285 118.279 130.643 117.533 130.888C116.786 131.123 115.874 131.24 114.797 131.24C113.687 131.24 112.722 131.107 111.901 130.84C111.079 130.563 110.439 130.173 109.981 129.672C109.522 129.171 109.277 128.589 109.245 127.928H111.965C112.029 128.227 112.189 128.488 112.445 128.712C112.701 128.925 113.031 129.091 113.437 129.208C113.853 129.325 114.333 129.384 114.877 129.384C115.634 129.384 116.205 129.299 116.589 129.128C116.983 128.957 117.181 128.701 117.181 128.36C117.181 128.115 117.042 127.928 116.765 127.8C116.498 127.672 116.002 127.576 115.277 127.512L113.581 127.384C112.567 127.299 111.762 127.128 111.164 126.872C110.567 126.616 110.141 126.296 109.885 125.912C109.639 125.517 109.517 125.085 109.517 124.616C109.517 123.965 109.719 123.421 110.125 122.984C110.53 122.547 111.095 122.216 111.821 121.992C112.557 121.768 113.405 121.656 114.365 121.656C115.346 121.656 116.221 121.789 116.989 122.056C117.757 122.323 118.37 122.691 118.829 123.16C119.298 123.629 119.565 124.173 119.629 124.792H116.909C116.866 124.568 116.743 124.36 116.541 124.168C116.349 123.965 116.066 123.8 115.693 123.672C115.319 123.544 114.834 123.48 114.237 123.48C113.565 123.48 113.047 123.56 112.685 123.72C112.322 123.869 112.141 124.099 112.141 124.408C112.141 124.621 112.253 124.797 112.477 124.936C112.701 125.064 113.117 125.155 113.725 125.208L115.933 125.384C116.914 125.469 117.687 125.635 118.253 125.88C118.818 126.115 119.213 126.424 119.437 126.808C119.671 127.192 119.789 127.635 119.789 128.136Z" fill="black"/>
</g>
<rect x="2.68145" y="2.68145" width="144.637" height="144.637" rx="10.7258" stroke="white" stroke-width="5.3629"/>
<defs>
<clipPath id="clip0_8661_689">
<rect width="150" height="150" rx="13.4073" fill="white"/>
</clipPath>
</defs>
</svg>
