<svg width="150" height="150" viewBox="0 0 150 150" fill="none" xmlns="http://www.w3.org/2000/svg">
<g clip-path="url(#clip0_3777_2609)">
<rect width="150" height="150" rx="24" fill="#FF592F"/>
<rect x="6.5" y="6.5" width="137" height="137" rx="23.5" stroke="black" stroke-dasharray="4 4"/>
<g clip-path="url(#clip1_3777_2609)">
<rect x="12" y="12" width="126" height="126" rx="24" fill="#FFE6C7"/>
<g clip-path="url(#clip2_3777_2609)">
<path d="M98.8342 98.978C98.8342 98.978 98.0589 101.25 94.2233 101.228C89.5099 101.2 89.7349 101.281 85.4127 104.533C81.0906 107.785 72.6907 104.199 74.8663 95.6889C76.4319 89.5652 85.9357 92.1815 90.3281 91.9589C96.5119 91.6455 100.219 96.0957 98.8342 98.978Z" fill="#F2CFF0"/>
<path d="M81.6877 105.982C80.2548 105.982 78.7803 105.555 77.5057 104.703C74.7183 102.839 73.6372 99.445 74.6136 95.6243C75.8717 90.7038 81.8441 91.1672 86.6448 91.5413C88.0182 91.648 89.3163 91.7487 90.3151 91.6984C94.537 91.4863 97.3503 93.3818 98.5755 95.2283C99.4377 96.5293 99.6195 97.9317 99.0748 99.0789C98.9896 99.3092 98.0802 101.488 94.28 101.488H94.2212C89.8986 101.459 89.8369 101.514 86.3589 104.145L85.569 104.741C84.4685 105.569 83.0981 105.982 81.6877 105.982ZM82.527 91.85C79.1056 91.85 75.9399 92.5377 75.1183 95.7536C74.1849 99.4041 75.1606 102.508 77.7945 104.27C80.1431 105.841 83.2122 105.862 85.2562 104.324L86.0455 103.729C89.5917 101.046 89.7269 100.944 94.2248 100.967C94.243 100.967 94.2618 100.967 94.2801 100.967C97.8144 100.967 98.5585 98.9775 98.5885 98.8924C98.592 98.8835 98.5956 98.8735 98.5997 98.865C99.0702 97.8857 98.9038 96.6651 98.1421 95.5171C97.0492 93.8687 94.3518 92.0142 90.341 92.2192C89.3099 92.2717 87.9954 92.1695 86.6043 92.061C85.2926 91.9591 83.8892 91.85 82.527 91.85Z" fill="black"/>
<path d="M65.7214 115.234C65.6883 115.234 65.6559 115.225 65.6271 115.209C65.5984 115.192 65.5743 115.169 65.5573 115.14C65.5344 115.102 63.2734 111.245 64.4509 106.715C65.3132 103.395 67.7583 100.556 71.7179 98.276C85.1496 90.5414 98.7978 98.7303 98.9342 98.8137C98.9556 98.8268 98.9742 98.844 98.989 98.8643C99.0037 98.8846 99.0143 98.9077 99.0202 98.9321C99.026 98.9566 99.027 98.9819 99.023 99.0067C99.0191 99.0315 99.0103 99.0553 98.9971 99.0767C98.9424 99.1672 98.8248 99.1955 98.7342 99.1401C98.6001 99.0576 85.1402 90.9871 71.9084 98.6078C68.0412 100.835 65.6566 103.595 64.8203 106.812C63.6833 111.188 65.8631 114.907 65.8855 114.944C65.8984 114.965 65.9069 114.989 65.9105 115.014C65.9142 115.039 65.9129 115.064 65.9068 115.089C65.9007 115.113 65.8899 115.136 65.8749 115.156C65.8599 115.176 65.8411 115.193 65.8196 115.206C65.79 115.224 65.756 115.234 65.7214 115.234Z" fill="black"/>
<path d="M89.5135 101.906C89.4783 101.906 89.4437 101.897 89.4137 101.878C89.3837 101.86 89.3594 101.833 89.3435 101.802C87.9671 99.1021 85.5574 95.3008 85.5332 95.2628C85.4768 95.1735 85.5027 95.0551 85.5921 94.9985C85.6797 94.9419 85.7985 94.9679 85.8555 95.0572C85.8797 95.0955 88.2994 98.9118 89.6834 101.628C89.7317 101.722 89.694 101.837 89.6005 101.886C89.5735 101.899 89.5437 101.906 89.5134 101.906L89.5135 101.906ZM88.8188 95.69C88.7884 95.69 88.7585 95.6827 88.7315 95.6688C88.7045 95.6548 88.6812 95.6346 88.6635 95.6098C88.6018 95.5241 88.6218 95.4045 88.7077 95.3429L93.2849 92.0563C93.3701 91.9953 93.4901 92.0145 93.5513 92.1005C93.6131 92.1862 93.593 92.3058 93.5072 92.3674L88.93 95.654C88.8976 95.6774 88.8587 95.69 88.8188 95.69H88.8188ZM77.7151 96.1743C77.674 96.1744 77.6339 96.161 77.601 96.1363C77.5604 96.106 77.5334 96.0608 77.526 96.0105C77.5186 95.9603 77.5314 95.9092 77.5616 95.8685L80.7796 91.5324C80.8425 91.447 80.9625 91.4299 81.0472 91.4933C81.0879 91.5235 81.1149 91.5688 81.1223 91.619C81.1296 91.6692 81.1168 91.7203 81.0866 91.7611L77.8687 96.0971C77.8508 96.121 77.8277 96.1405 77.801 96.1539C77.7744 96.1673 77.7449 96.1743 77.7151 96.1743Z" fill="black"/>
<path d="M46.3757 118.767H90.3037C90.3037 118.767 88.2314 109.978 81.9813 111.831C75.7313 113.684 76.9634 104.753 71.5997 105.261C66.236 105.769 64.685 113.318 59.4082 111.177C54.1314 109.037 53.1166 113.611 49.9998 115.281C46.8831 116.951 43.4764 116.008 43.0415 118.767H46.3757H46.3757Z" fill="white"/>
<path d="M90.304 119H43.0419C43.0082 119 42.975 118.993 42.9444 118.979C42.9138 118.965 42.8867 118.944 42.8648 118.919C42.843 118.893 42.827 118.863 42.8179 118.831C42.8087 118.798 42.8067 118.764 42.8119 118.731C43.1054 116.868 44.6476 116.547 46.4333 116.176C47.5091 115.953 48.7284 115.699 49.8901 115.077C50.8347 114.571 51.5999 113.767 52.3398 112.99C54.005 111.242 55.7254 109.433 59.4951 110.962C62.2701 112.088 63.9306 110.428 65.8527 108.506C67.4473 106.913 69.096 105.265 71.5781 105.03C74.2331 104.779 75.3548 106.699 76.4382 108.557C77.634 110.607 78.7645 112.542 81.9154 111.608C83.4852 111.142 84.9375 111.288 86.2326 112.041C89.3535 113.854 90.484 118.516 90.5305 118.714C90.5385 118.748 90.5388 118.784 90.5311 118.818C90.5235 118.852 90.5082 118.884 90.4864 118.912C90.4647 118.939 90.4369 118.962 90.4054 118.977C90.3738 118.992 90.3392 119 90.3041 119L90.304 119ZM43.3277 118.534H90.0005C89.7023 117.494 88.5171 113.906 85.9979 112.444C84.818 111.759 83.4887 111.628 82.0471 112.055C78.5462 113.094 77.2699 110.907 76.0365 108.792C74.9801 106.981 73.9808 105.267 71.6216 105.494C69.3065 105.713 67.7179 107.301 66.1815 108.836C64.227 110.79 62.3795 112.636 59.3209 111.394C55.8448 109.985 54.3061 111.6 52.6763 113.312C51.9111 114.116 51.1199 114.946 50.11 115.488C48.8884 116.142 47.6344 116.403 46.5274 116.633C44.8858 116.974 43.6712 117.226 43.3277 118.534Z" fill="black"/>
<path d="M117.552 44.3851C116.378 45.9598 97.104 66.5765 97.104 66.5765C97.104 66.5765 84.1245 72.0972 79.535 74.9813C74.9455 77.8714 68.1275 83.1266 68.1275 83.1266L45.5654 78.3118C45.5654 78.3118 47.023 66.3171 49.7755 62.6366C51.745 60.006 53.6302 56.1868 54.5457 54.2258C54.9071 53.4475 55.148 52.6209 55.2564 51.7641C55.2925 51.4504 55.3407 51.0884 55.4009 50.6842C55.66 48.9042 56.0996 46.4124 56.7742 44.4756C57.3584 42.7742 58.1233 41.495 59.087 41.495C61.966 41.495 63.6705 47.9329 62.8875 54.3646C62.0985 60.8024 68.9165 63.8192 68.9165 63.8192L81.7153 60.7662C81.7153 60.7662 86.2205 51.8727 89.3705 46.7502C92.5146 41.6277 93.695 41.495 94.4841 42.8104C95.267 44.1196 94.4841 49.767 94.4841 49.767C94.4841 49.767 98.411 42.4121 102.609 39.3954C106.349 36.6984 106.337 40.1677 105.542 42.0682C105.452 42.2975 105.344 42.5087 105.229 42.6776C104.801 43.3232 104.061 44.6747 103.338 46.0504C102.302 48.0293 101.296 50.0446 101.296 50.0446C101.296 50.0446 108.512 44.2524 112.445 42.8103C116.378 41.3622 118.733 42.8103 117.552 44.3851L117.552 44.3851Z" fill="#DF929A"/>
<path d="M68.1274 83.2709C68.1173 83.271 68.1072 83.2699 68.0974 83.2677L45.5354 78.4526C45.5002 78.4452 45.4691 78.4248 45.4482 78.3955C45.4273 78.3662 45.4181 78.3302 45.4224 78.2944C45.4824 77.803 46.9164 66.2194 49.6603 62.5503C51.6007 59.9584 53.4723 56.1842 54.4157 54.1649C54.7733 53.3934 55.008 52.5797 55.1133 51.7462C55.1498 51.4327 55.198 51.0689 55.2586 50.6629C55.635 48.0739 56.0997 45.976 56.6385 44.4284C57.3396 42.3868 58.163 41.3513 59.0871 41.3513C59.7605 41.3513 60.3881 41.6745 60.951 42.3117C62.7585 44.356 63.6325 49.4324 63.0302 54.3821C62.7091 57.0023 63.6072 59.3621 65.6994 61.3967C67.1287 62.7863 68.6574 63.5391 68.9314 63.6678L81.6168 60.6419C82.0173 59.8541 86.2652 51.525 89.2478 46.6751C91.247 43.418 92.5704 41.9644 93.5368 41.9644H93.5415C93.9485 41.9667 94.2967 42.2192 94.6073 42.7363C95.2414 43.7974 94.9014 47.4668 94.7179 49.0538C95.7878 47.1854 99.0798 41.754 102.525 39.2785C103.922 38.2703 104.946 38.0081 105.565 38.5022C106.406 39.1721 106.135 41.0234 105.675 42.1241C105.581 42.3621 105.467 42.5825 105.347 42.759C104.98 43.3134 104.311 44.5066 103.465 46.1178C102.773 47.4397 102.088 48.7899 101.715 49.532C103.432 48.1922 109.091 43.8868 112.395 42.6753C115.201 41.6422 117.15 42.0714 117.772 42.909C118.109 43.363 118.071 43.9325 117.667 44.4719C116.499 46.0374 97.9964 65.8332 97.2088 66.6752C97.1953 66.6899 97.1789 66.7015 97.1606 66.7094C97.0306 66.7645 84.1382 72.2586 79.6116 75.1037C75.0802 77.9569 68.2832 83.1886 68.215 83.2413C68.1898 83.2606 68.159 83.271 68.1274 83.2711L68.1274 83.2709ZM45.7247 78.1984L68.0927 82.9722C68.7385 82.4757 75.1279 77.5865 79.4587 74.8596C83.9024 72.0667 96.3407 66.7458 97.0201 66.4559C97.7518 65.6728 116.298 45.8266 117.436 44.2988V44.2985C117.763 43.8625 117.801 43.43 117.542 43.0809C116.964 42.3031 115.046 42.0059 112.494 42.9457C108.628 44.3633 101.458 50.0996 101.386 50.1573C101.333 50.1992 101.258 50.1998 101.206 50.1568C101.18 50.1361 101.162 50.1073 101.156 50.0752C101.149 50.0432 101.153 50.0097 101.167 49.9803C101.177 49.9603 102.185 47.941 103.21 45.9836C103.812 44.8379 104.63 43.3207 105.109 42.5983C105.218 42.4377 105.321 42.2365 105.409 42.0153C105.902 40.8348 106.033 39.2436 105.386 38.7275C104.885 38.3297 103.955 38.602 102.693 39.5123C98.5699 42.4755 94.6496 49.762 94.6108 49.8353C94.5773 49.8966 94.5044 49.9255 94.4391 49.9043C94.4071 49.8937 94.3798 49.8722 94.362 49.8436C94.3441 49.815 94.3369 49.781 94.3414 49.7475C94.3491 49.6916 95.1084 44.1355 94.3603 42.8844C94.1026 42.4551 93.8421 42.2542 93.5403 42.2527H93.5368C92.7045 42.2527 91.3817 43.7485 89.4925 46.8259C86.3822 51.8846 81.8885 60.7429 81.8432 60.8316C81.8338 60.8502 81.8205 60.8666 81.8041 60.8796C81.7878 60.8926 81.7688 60.9018 81.7485 60.9067L68.9497 63.9597C68.9191 63.968 68.8873 63.9641 68.8579 63.9512C68.7874 63.9199 67.1116 63.1687 65.5059 61.6099C64.0172 60.1646 62.3297 57.7317 62.7444 54.347C63.3378 49.4721 62.4932 44.4909 60.7357 42.5026C60.2293 41.9299 59.6746 41.6394 59.087 41.6394C58.3106 41.6394 57.5578 42.6363 56.9102 44.5227C56.3767 46.0537 55.9173 48.1337 55.5432 50.705C55.4893 51.0628 55.4413 51.4215 55.3991 51.7809C55.2897 52.6453 55.0468 53.4879 54.6762 54.2866C53.7281 56.3161 51.8465 60.1107 49.8908 62.723C47.3457 66.1257 45.8935 76.8862 45.7247 78.1984L45.7247 78.1984ZM64.5983 115.391C64.5854 115.391 64.5726 115.39 64.5601 115.387L32.1425 107.691C32.1198 107.685 32.0986 107.675 32.0801 107.661C32.0617 107.647 32.0464 107.629 32.0354 107.608C32.0244 107.588 32.0178 107.565 32.0161 107.542C32.0144 107.519 32.0175 107.495 32.0254 107.473L41.5157 81.0952C41.5445 81.0139 41.6304 80.9679 41.7133 80.9912L67.6069 87.9154C67.645 87.9256 67.6783 87.9491 67.7006 87.9818C67.7229 88.0144 67.7328 88.054 67.7286 88.0933L64.7624 115.244C64.7599 115.267 64.7524 115.29 64.7406 115.31C64.7287 115.33 64.7127 115.347 64.6936 115.361C64.6656 115.381 64.6324 115.391 64.5983 115.391L64.5983 115.391ZM32.3989 107.411L64.4542 115.022L67.3851 88.1985L41.7751 81.3503L32.3989 107.411Z" fill="black"/>
<path d="M41.6708 81.1504L67.564 88.0747L64.5981 115.225L32.1802 107.529L41.6708 81.1504Z" fill="#CB982F"/>
<path d="M64.4356 115.188L64.7331 113.993L65.2184 109.55L64.9252 110.728L60.7624 109.688L61.8008 105.517L65.5564 106.456L65.6226 105.85L61.9467 104.932L62.9851 100.761L66.0937 101.538L66.1598 100.932L63.1309 100.175L64.1693 96.0052L66.6309 96.6204L66.697 96.0148L64.3152 95.4196L65.3536 91.2491L67.1681 91.7025L67.2343 91.0969L65.4995 90.6634L66.2324 87.72L65.6501 87.5643L64.9148 90.5173L60.752 89.4771L61.5044 86.4557L60.9222 86.3L60.1674 89.3311L56.0043 88.2908L56.7761 85.1912L56.1939 85.0355L55.4197 88.1447L51.2565 87.1044L52.0478 83.9268L51.4655 83.7711L50.6718 86.9583L46.5087 85.918L47.3194 82.6624L46.7371 82.5066L45.924 85.7719L41.7609 84.7316L42.591 81.3979L42.0088 81.2422L41.1762 84.5855L40.4967 84.4157L40.2913 84.9865L41.0304 85.1712L39.9919 89.3415L38.829 89.0509L38.6236 89.6217L39.846 89.9272L38.8076 94.0974L37.1613 93.6861L36.956 94.2569L38.6617 94.6832L37.6232 98.8537L35.4936 98.3215L35.2882 98.8923L37.4774 99.4393L36.439 103.609L33.826 102.957L33.6206 103.527L36.2931 104.195L35.2794 108.266L35.8658 108.405L36.8778 104.341L41.0409 105.382L40.0411 109.397L40.6275 109.536L41.6256 105.528L45.7887 106.568L44.8029 110.527L45.3892 110.666L46.3734 106.714L50.5365 107.754L49.5646 111.657L50.1509 111.797L51.1212 107.901L55.2843 108.941L54.3263 112.788L54.9127 112.927L55.8689 109.087L60.0319 110.127L59.0879 113.918L59.6743 114.058L60.6166 110.273L64.7793 111.314L63.8492 115.049L64.4356 115.188L64.4356 115.188ZM61.3621 104.786L57.1992 103.745L58.2377 99.5748L62.4005 100.615L61.3621 104.786ZM53.051 97.6566L48.8879 96.6163L49.9264 92.446L54.0895 93.4863L53.051 97.6566ZM54.6741 93.6324L58.8373 94.6728L57.7988 98.843L53.6357 97.8027L54.6741 93.6325L54.6741 93.6324ZM48.3033 96.4702L44.1401 95.4299L45.1786 91.2596L49.3417 92.2999L48.3033 96.4702ZM48.1574 97.0559L47.1189 101.226L42.9558 100.186L43.9943 96.0156L48.1574 97.0559ZM48.7421 97.202L52.9052 98.2423L51.8667 102.413L47.7036 101.372L48.7421 97.202ZM53.4899 98.3884L57.653 99.4287L56.6145 103.599L52.4514 102.559L53.4899 98.3884ZM62.5464 100.029L58.3835 98.9891L59.422 94.8189L63.5848 95.8591L62.5464 100.029ZM60.6063 90.0628L64.7691 91.103L63.7306 95.2734L59.5678 94.2332L60.6063 90.0628ZM55.8585 88.8763L60.0216 89.9166L58.9831 94.087L54.82 93.0467L55.8585 88.8763ZM51.1107 87.69L55.2739 88.7303L54.2354 92.9007L50.0723 91.8604L51.1107 87.69L51.1107 87.69ZM46.3629 86.5036L50.526 87.5439L49.4876 91.7142L45.3244 90.6739L46.3629 86.5036ZM41.6151 85.3171L45.7783 86.3574L44.7398 90.5278L40.5767 89.4875L41.6152 85.3171H41.6151ZM40.4308 90.0731L44.5939 91.1134L43.5555 95.2837L39.3923 94.2434L40.4308 90.0731ZM39.2465 94.8291L43.4097 95.8694L42.3712 100.04L38.208 98.9996L39.2465 94.8291ZM41.1868 104.796L37.0237 103.755L38.0621 99.5853L42.2253 100.626L41.1868 104.796ZM45.9346 105.982L41.7715 104.942L42.81 100.772L46.9731 101.812L45.9346 105.982ZM50.6824 107.169L46.5193 106.128L47.5577 101.958L51.7209 102.998L50.6824 107.169ZM55.4302 108.355L51.2671 107.315L52.3055 103.144L56.4687 104.185L55.4302 108.355ZM60.1778 109.541L56.0149 108.501L57.0533 104.331L61.2162 105.371L60.1778 109.541Z" fill="white"/>
<path d="M64.5983 115.407C64.5842 115.407 64.5706 115.405 64.5565 115.402L32.1389 107.706C32.1141 107.7 32.0909 107.689 32.0708 107.673C32.0506 107.658 32.0339 107.638 32.0218 107.616C32.0097 107.594 32.0024 107.569 32.0005 107.544C31.9986 107.518 32.0021 107.493 32.0107 107.469L41.501 81.0904C41.5161 81.0477 41.5469 81.0123 41.587 80.9912C41.6271 80.9702 41.6737 80.9651 41.7174 80.977L67.6109 87.9011C67.6527 87.9121 67.6891 87.9378 67.7135 87.9735C67.7379 88.0092 67.7487 88.0525 67.7439 88.0955L64.7777 115.246C64.775 115.271 64.7668 115.296 64.7539 115.318C64.7409 115.34 64.7233 115.359 64.7024 115.374C64.6719 115.396 64.6355 115.407 64.5982 115.407H64.5983ZM32.4189 107.401L64.4412 115.003L67.368 88.2105L41.7845 81.3694L32.4189 107.401Z" fill="black"/>
<path d="M43.4839 81.6354L45.5659 77.9082L68.13 83.1262L66.7277 87.8512L43.4839 81.6354Z" fill="white"/>
<path d="M66.7282 88.0335C66.7129 88.0335 66.697 88.0314 66.6817 88.0273L43.4374 81.8114C43.4108 81.8044 43.3861 81.7913 43.3653 81.7732C43.3445 81.7551 43.3281 81.7325 43.3174 81.7071C43.3067 81.6817 43.302 81.6542 43.3035 81.6267C43.305 81.5992 43.3128 81.5724 43.3262 81.5483L45.4084 77.8212C45.4478 77.7511 45.5284 77.7146 45.6066 77.7334L68.171 82.9515C68.195 82.957 68.2177 82.9674 68.2375 82.982C68.2573 82.9967 68.2739 83.0153 68.2863 83.0367C68.2987 83.058 68.3066 83.0817 68.3096 83.1062C68.3125 83.1307 68.3104 83.1556 68.3033 83.1793L66.9011 87.9042C66.8782 87.9825 66.8065 88.0335 66.7282 88.0335ZM43.755 81.5221L66.6053 87.6325L67.9028 83.2606L45.6572 78.1164L43.755 81.5221Z" fill="black"/>
<path d="M45.5659 77.909L45.9887 77.9724L70.1566 81.5912L68.13 83.127L45.5659 77.909ZM90.3041 58.9862C90.2841 58.9862 90.2635 58.982 90.2441 58.9729C90.1717 58.9396 90.1399 58.8539 90.1735 58.7817L94.3502 49.709C94.3831 49.6365 94.469 49.6047 94.5407 49.6386C94.6131 49.6719 94.6448 49.7576 94.6113 49.8298L90.4346 58.9025C90.4231 58.9275 90.4047 58.9487 90.3816 58.9635C90.3584 58.9783 90.3315 58.9862 90.3041 58.9862Z" fill="black"/>
<path d="M73.1385 66.5275C73.1156 66.5275 73.0931 66.5221 73.0727 66.5116C73.0524 66.5012 73.0348 66.486 73.0214 66.4674C73.0091 66.4497 71.7204 64.6933 68.8806 63.9606C68.8494 63.9525 68.8219 63.9342 68.8024 63.9086C68.7828 63.8829 68.7725 63.8514 68.773 63.8192C68.7733 63.787 68.7844 63.7558 68.8046 63.7307C68.8248 63.7055 68.8528 63.6879 68.8841 63.6807L90.2398 58.7086L101.206 49.93C101.267 49.8804 101.358 49.8902 101.408 49.9526C101.432 49.9825 101.443 50.0205 101.439 50.0585C101.435 50.0964 101.416 50.1311 101.386 50.155L90.394 58.9541C90.3771 58.9676 90.3574 58.9771 90.3363 58.9818L69.4876 63.8361C72.0574 64.6589 73.2049 66.2288 73.2555 66.2996C73.3014 66.3644 73.2867 66.4542 73.2226 66.5005C73.1981 66.5181 73.1686 66.5276 73.1385 66.5276V66.5275Z" fill="black"/>
<path d="M70.7292 68.3383C70.7008 68.3383 70.673 68.3299 70.6493 68.3141C70.6256 68.2983 70.6072 68.2759 70.5963 68.2496L68.7835 63.877C68.7529 63.8034 68.7882 63.7191 68.8611 63.6885C68.9352 63.6587 69.0187 63.6929 69.0493 63.7662L70.8621 68.1388C70.8927 68.2124 70.8574 68.2967 70.7845 68.3273C70.7669 68.3345 70.7482 68.3382 70.7292 68.3382V68.3383Z" fill="black"/>
<path d="M117.266 44.7363C117.266 44.7363 114.32 44.8896 112.739 46.1717C111.158 47.4538 112.739 49.7403 112.739 49.7403L117.266 44.7363Z" fill="white"/>
<path d="M112.74 49.8835C112.737 49.8835 112.733 49.8835 112.73 49.8831C112.709 49.8817 112.688 49.8754 112.669 49.8647C112.65 49.854 112.634 49.8391 112.621 49.8213C112.605 49.7974 110.984 47.4093 112.649 46.0589C114.248 44.762 117.136 44.5976 117.258 44.5914C117.331 44.5814 117.37 44.6206 117.396 44.6733C117.42 44.726 117.411 44.7888 117.372 44.8318L112.846 49.836C112.833 49.8509 112.816 49.8629 112.798 49.8711C112.78 49.8793 112.76 49.8835 112.74 49.8834L112.74 49.8835ZM116.913 44.9102C116.087 44.9977 114.034 45.3064 112.83 46.2828C111.6 47.2803 112.454 48.9808 112.761 49.5014L116.913 44.9102Z" fill="black"/>
<path d="M58.4847 47.7287C58.3461 50.0999 56.5814 50.6127 55.4009 50.6851C55.6599 48.9052 56.0996 46.4133 56.7741 44.4766C57.521 44.6636 58.6172 45.3454 58.4847 47.7286V47.7287Z" fill="white"/>
<path d="M55.4007 50.8285C55.3607 50.8285 55.3219 50.8117 55.2949 50.7819C55.2803 50.7662 55.2695 50.7475 55.2632 50.727C55.2569 50.7066 55.2552 50.6849 55.2584 50.6638C55.6348 48.0739 56.0995 45.976 56.6383 44.4284C56.6502 44.3946 56.6743 44.3664 56.7058 44.3494C56.7374 44.3324 56.7741 44.3277 56.8088 44.3362C57.5488 44.5215 58.7687 45.2097 58.6281 47.7357V47.7362C58.4804 50.2637 56.5483 50.7583 55.4096 50.8281C55.4066 50.8284 55.4037 50.8284 55.4008 50.8284L55.4007 50.8285ZM56.8659 44.6514C56.3636 46.1327 55.9277 48.1078 55.5696 50.5268C56.8059 50.4081 58.2187 49.8088 58.3411 47.7192C58.4569 45.6322 57.6317 44.8936 56.8659 44.6514Z" fill="black"/>
<path d="M105.542 42.0684C105.452 42.2976 105.343 42.5088 105.229 42.6777C104.801 43.3233 104.061 44.6748 103.338 46.0505C102.934 45.5075 102.446 44.518 103.151 43.5043C103.922 42.4062 105.012 42.1347 105.542 42.0684V42.0684Z" fill="white"/>
<path d="M103.337 46.1942C103.315 46.1943 103.293 46.189 103.273 46.179C103.253 46.1689 103.235 46.1542 103.222 46.1362C102.822 45.5971 102.264 44.5276 103.033 43.4217C103.826 42.2913 104.934 41.9988 105.524 41.9251C105.549 41.9217 105.574 41.925 105.597 41.9347C105.62 41.9443 105.64 41.9599 105.655 41.9799C105.671 41.9996 105.681 42.023 105.684 42.0478C105.688 42.0726 105.685 42.0978 105.675 42.121C105.581 42.3617 105.467 42.5821 105.347 42.7586C104.98 43.313 104.311 44.5065 103.464 46.1174C103.453 46.1389 103.437 46.1572 103.416 46.1706C103.396 46.184 103.373 46.1921 103.349 46.194C103.345 46.1943 103.341 46.1943 103.337 46.1943L103.337 46.1942ZM105.304 42.2533C104.736 42.3699 103.895 42.694 103.269 43.5867C102.683 44.4289 102.996 45.26 103.321 45.7726C103.909 44.6578 104.659 43.2767 105.108 42.5979C105.177 42.4972 105.243 42.3805 105.304 42.2533Z" fill="black"/>
<path d="M85.8682 21.6641H68.7027L57.8613 29.8094L77.2854 55.1503L96.7095 29.8094L85.8682 21.6641Z" fill="#5F6AFF"/>
<path d="M77.2854 55.3155C77.26 55.3155 77.235 55.3096 77.2122 55.2984C77.1895 55.2871 77.1696 55.2708 77.1542 55.2506L57.7301 29.9097C57.7036 29.8745 57.6919 29.8303 57.6978 29.7866C57.7006 29.7649 57.7078 29.744 57.7188 29.7251C57.7298 29.7063 57.7444 29.6898 57.7619 29.6767L68.6032 21.5314C68.6319 21.5098 68.6668 21.4981 68.7026 21.498H85.8681C85.904 21.498 85.9387 21.5098 85.9675 21.5314L96.8089 29.6767C96.8263 29.6898 96.841 29.7063 96.852 29.7251C96.863 29.744 96.8701 29.7649 96.873 29.7866C96.8788 29.8303 96.8672 29.8745 96.8406 29.9097L77.4165 55.2507C77.4011 55.2708 77.3812 55.2872 77.3585 55.2984C77.3358 55.3096 77.3107 55.3155 77.2854 55.3155ZM58.0942 29.8411L77.2854 54.8783L96.4765 29.8411L85.8128 21.8292H68.7579L58.0942 29.8411H58.0942Z" fill="black"/>
<path d="M77.2853 28.1425H69.1543C69.1278 28.1425 69.1025 28.1354 69.0802 28.1219L64.1595 25.1443C64.1433 25.1345 64.1291 25.1216 64.1179 25.1064C64.1067 25.0912 64.0986 25.0738 64.094 25.0555C64.0895 25.0371 64.0886 25.018 64.0915 24.9992C64.0943 24.9805 64.1009 24.9625 64.1107 24.9463C64.1512 24.878 64.2401 24.8571 64.3077 24.8974L69.1943 27.8544H77.2853C77.3647 27.8544 77.4294 27.9189 77.4294 27.9984C77.4294 28.078 77.3647 28.1425 77.2853 28.1425Z" fill="black"/>
<path d="M77.2853 55.2944C77.2588 55.2944 77.2328 55.287 77.2102 55.2732C77.1876 55.2594 77.1692 55.2396 77.1571 55.216L66.9933 35.3807C66.9769 35.3484 66.9732 35.3113 66.9827 35.2764L69.0154 27.9607C69.0372 27.8838 69.1166 27.8399 69.1931 27.8606C69.2298 27.8708 69.261 27.8953 69.2797 27.9285C69.2984 27.9618 69.3033 28.0011 69.293 28.0379L67.275 35.2994L77.4135 55.0846C77.4494 55.1553 77.4217 55.2422 77.3511 55.2785C77.3308 55.289 77.3082 55.2944 77.2853 55.2944Z" fill="black"/>
<path d="M77.2852 35.4582H67.1214C67.0956 35.4581 67.0702 35.4512 67.0479 35.4382L57.7875 29.9325C57.7548 29.913 57.7311 29.8811 57.7217 29.8441C57.7123 29.807 57.718 29.7677 57.7375 29.7348C57.7775 29.6662 57.8675 29.6447 57.9346 29.6845L67.1608 35.1701H77.2852C77.3646 35.1701 77.4293 35.2346 77.4293 35.3141C77.4293 35.3937 77.3646 35.4582 77.2852 35.4582ZM85.4162 28.1425H77.2852C77.2057 28.1425 77.141 28.078 77.141 27.9984C77.141 27.9189 77.2057 27.8544 77.2852 27.8544H85.3762L90.2628 24.8974C90.3298 24.857 90.4187 24.878 90.4598 24.9463C90.4696 24.9625 90.4761 24.9805 90.479 24.9992C90.4818 25.0179 90.4809 25.037 90.4764 25.0554C90.4719 25.0738 90.4638 25.0911 90.4525 25.1064C90.4413 25.1216 90.4272 25.1345 90.411 25.1443L85.4903 28.1219C85.4679 28.1354 85.4423 28.1426 85.4162 28.1425Z" fill="black"/>
<path d="M77.285 55.2939C77.2621 55.294 77.2395 55.2885 77.2192 55.278C77.1486 55.2418 77.1209 55.1549 77.1568 55.0842L87.2953 35.299L85.2772 28.0375C85.267 28.0007 85.2718 27.9613 85.2906 27.9281C85.3093 27.8948 85.3405 27.8704 85.3772 27.8601C85.4531 27.8407 85.5331 27.8837 85.5549 27.9603L87.5876 35.276C87.5971 35.3108 87.5934 35.348 87.577 35.3803L77.4132 55.2156C77.4011 55.2392 77.3827 55.259 77.3601 55.2728C77.3375 55.2866 77.3115 55.2939 77.285 55.2939Z" fill="black"/>
<path d="M87.449 35.4576H77.2852C77.2058 35.4576 77.1411 35.3931 77.1411 35.3136C77.1411 35.234 77.2058 35.1695 77.2852 35.1695H87.4096L96.6358 29.6839C96.7035 29.6442 96.7923 29.6657 96.8328 29.7343C96.8524 29.7672 96.8581 29.8064 96.8487 29.8435C96.8393 29.8806 96.8156 29.9124 96.7828 29.932L87.5225 35.4376C87.5002 35.4507 87.4748 35.4576 87.449 35.4576Z" fill="black"/>
<path d="M68.7058 28.9637C66.3544 28.9637 64.2256 29.9185 62.6834 31.4635C61.1411 33.0085 60.188 35.141 60.188 37.4965C60.188 35.141 59.2349 33.0085 57.6927 31.4635C56.153 29.9185 54.0242 28.9637 51.6729 28.9637C54.0242 28.9637 56.153 28.009 57.6927 26.464C59.2349 24.9216 60.188 22.7891 60.188 20.4336C60.188 22.7891 61.1411 24.9216 62.6834 26.464C64.2257 28.0089 66.3545 28.9637 68.7058 28.9637Z" fill="white"/>
<path d="M60.1879 37.6768C60.1642 37.6768 60.1407 37.6722 60.1188 37.6631C60.0969 37.654 60.0769 37.6407 60.0602 37.6239C60.0434 37.6071 60.0301 37.5871 60.021 37.5652C60.012 37.5432 60.0073 37.5197 60.0073 37.4959C60.0073 35.266 59.1398 33.1687 57.5646 31.5908C55.9924 30.0129 53.9002 29.1438 51.6728 29.1438C51.5728 29.1438 51.4922 29.0628 51.4922 28.9629C51.4922 28.863 51.5728 28.782 51.6728 28.782C53.9002 28.782 55.993 27.9132 57.5646 26.3353C59.1398 24.76 60.0073 22.6639 60.0073 20.4329C60.0073 20.333 60.0879 20.252 60.1879 20.252C60.2879 20.252 60.3685 20.333 60.3685 20.4329C60.3685 22.6642 61.2355 24.7603 62.8106 26.3353C64.3852 27.9132 66.4791 28.782 68.7054 28.782C68.8053 28.782 68.8859 28.863 68.8859 28.9629C68.8859 29.0628 68.8054 29.1438 68.7054 29.1438C66.4791 29.1438 64.3857 30.0129 62.8106 31.5908C61.236 33.1684 60.3685 35.2657 60.3685 37.4959C60.3685 37.5197 60.3638 37.5432 60.3548 37.5652C60.3457 37.5871 60.3324 37.6071 60.3156 37.6239C60.2989 37.6407 60.2789 37.654 60.257 37.6631C60.2351 37.6722 60.2116 37.6768 60.1879 37.6768ZM53.4497 28.9629C55.0954 29.3035 56.6065 30.1169 57.8199 31.3351C59.0363 32.5536 59.8479 34.0682 60.1879 35.7165C60.5279 34.0682 61.3396 32.5533 62.5554 31.3351C63.7711 30.1166 65.2833 29.3035 66.9291 28.9629C65.2834 28.6224 63.7711 27.8092 62.5554 26.591C61.3396 25.3752 60.5279 23.8612 60.1879 22.2126C59.848 23.8609 59.0363 25.3749 57.8199 26.591C56.6065 27.8092 55.0955 28.6224 53.4497 28.9629Z" fill="black"/>
<path d="M66.9699 18.9224C66.2144 18.9224 65.5304 19.2292 65.0349 19.7256C64.5393 20.2221 64.2331 20.9072 64.2331 21.6641C64.2331 20.9072 63.9269 20.2221 63.4313 19.7256C62.9366 19.2292 62.2526 18.9224 61.4971 18.9224C62.2526 18.9224 62.9366 18.6157 63.4313 18.1192C63.9269 17.6237 64.2331 16.9385 64.2331 16.1816C64.2331 16.9385 64.5393 17.6237 65.0349 18.1192C65.5304 18.6157 66.2144 18.9224 66.9699 18.9224Z" fill="white"/>
<path d="M64.2331 21.8442C64.2094 21.8442 64.1859 21.8396 64.164 21.8305C64.1421 21.8214 64.1222 21.8081 64.1054 21.7913C64.0886 21.7745 64.0753 21.7545 64.0663 21.7326C64.0572 21.7106 64.0525 21.6871 64.0525 21.6633C64.0525 20.9792 63.7867 20.3361 63.3038 19.8526C62.8215 19.3689 62.1803 19.1026 61.4975 19.1026C61.3975 19.1026 61.3169 19.0215 61.3169 18.9217C61.3169 18.8218 61.3975 18.7408 61.4975 18.7408C62.1804 18.7408 62.8215 18.4744 63.3038 17.9907C63.7867 17.5078 64.0525 16.865 64.0525 16.1809C64.0525 16.081 64.1331 16 64.2331 16C64.3331 16 64.4137 16.081 64.4137 16.1809C64.4137 16.8647 64.6796 17.5072 65.1631 17.9907C65.646 18.4744 66.2877 18.7408 66.9699 18.7408C67.0699 18.7408 67.1505 18.8218 67.1505 18.9217C67.1505 19.0215 67.0699 19.1026 66.9699 19.1026C66.2877 19.1026 65.6459 19.3689 65.1631 19.8526C64.6796 20.3364 64.4137 20.9795 64.4137 21.6633C64.4137 21.6871 64.4091 21.7106 64.4 21.7326C64.3909 21.7545 64.3776 21.7745 64.3609 21.7913C64.3441 21.8081 64.3242 21.8214 64.3023 21.8305C64.2803 21.8396 64.2568 21.8442 64.2331 21.8442ZM62.5121 18.9217C62.9009 19.0661 63.2573 19.2944 63.5591 19.597C63.8614 19.8995 64.089 20.2569 64.2331 20.6469C64.3772 20.2572 64.6054 19.8998 64.9078 19.597C65.2095 19.2941 65.5665 19.0661 65.9553 18.9217C65.5665 18.7774 65.2095 18.5494 64.9078 18.2465C64.6054 17.9442 64.3772 17.5869 64.2331 17.1971C64.089 17.5872 63.8614 17.9442 63.5591 18.2465C63.2573 18.5494 62.9009 18.7774 62.5121 18.9217Z" fill="black"/>
<path d="M72.5593 24.1373C71.8038 24.1373 71.1198 24.444 70.6242 24.9405C70.1287 25.4369 69.8225 26.1221 69.8225 26.8789C69.8225 26.1221 69.5162 25.4369 69.0207 24.9405C68.526 24.444 67.8419 24.1373 67.0864 24.1373C67.8419 24.1373 68.5259 23.8305 69.0207 23.3341C69.5162 22.8385 69.8225 22.1533 69.8225 21.3965C69.8225 22.1533 70.1287 22.8385 70.6242 23.3341C71.1198 23.8305 71.8038 24.1373 72.5593 24.1373Z" fill="white"/>
<path d="M69.8226 27.0591C69.7989 27.0591 69.7754 27.0544 69.7534 27.0453C69.7315 27.0362 69.7116 27.0229 69.6948 27.0061C69.6781 26.9893 69.6648 26.9694 69.6557 26.9474C69.6466 26.9255 69.642 26.9019 69.642 26.8782C69.642 26.1947 69.3761 25.5516 68.8932 25.0675C68.4109 24.5837 67.7692 24.3174 67.0863 24.3174C66.9864 24.3174 66.9058 24.2364 66.9058 24.1365C66.9058 24.0366 66.9863 23.9556 67.0863 23.9556C67.7692 23.9556 68.4109 23.6893 68.8932 23.2055C69.3761 22.7221 69.642 22.0793 69.642 21.3957C69.642 21.2959 69.7226 21.2148 69.8226 21.2148C69.9226 21.2148 70.0032 21.2959 70.0032 21.3957C70.0032 22.0792 70.269 22.7221 70.7519 23.2055C71.2348 23.6893 71.8771 23.9556 72.5594 23.9556C72.6594 23.9556 72.74 24.0366 72.74 24.1365C72.74 24.2364 72.6594 24.3174 72.5594 24.3174C71.8771 24.3174 71.2348 24.5837 70.7519 25.0675C70.269 25.5515 70.0032 26.1947 70.0032 26.8782C70.0032 26.9019 69.9985 26.9255 69.9895 26.9474C69.9804 26.9694 69.9671 26.9893 69.9503 27.0061C69.9335 27.0229 69.9136 27.0362 69.8917 27.0453C69.8698 27.0544 69.8463 27.0591 69.8226 27.0591ZM68.1016 24.1366C68.4903 24.2809 68.8468 24.5093 69.1485 24.8118C69.4508 25.1147 69.6785 25.4723 69.8226 25.8621C69.9667 25.472 70.1943 25.1147 70.4966 24.8118C70.7989 24.509 71.156 24.2809 71.5448 24.1366C71.156 23.9922 70.7989 23.7642 70.4966 23.4613C70.1943 23.1588 69.9667 22.8017 69.8226 22.4119C69.6785 22.8017 69.4508 23.1588 69.1485 23.4613C68.8468 23.7642 68.4903 23.9922 68.1016 24.1366Z" fill="black"/>
</g>
<rect x="10" y="86" width="129" height="56" fill="#EEBF98"/>
</g>
<path d="M33.2938 93.2539C36.0429 93.2539 37.9563 93.7444 39.0338 94.7252C40.1114 95.6922 40.6501 97.0599 40.6501 98.8281C40.6501 100.044 40.436 101.08 40.0077 101.936C39.5795 102.779 38.8266 103.442 37.7491 103.926C36.6715 104.395 35.1864 104.63 33.2938 104.63H28.9837V108.277H23.8861C23.9966 105.597 24.0519 103.09 24.0519 100.755C24.0519 98.4206 23.9966 95.9133 23.8861 93.2332H28.9837V93.2539H33.2938ZM31.8433 100.631C32.9899 100.631 33.8464 100.59 34.4128 100.507C34.993 100.41 35.3937 100.244 35.6147 100.009C35.8495 99.7744 35.967 99.4291 35.967 98.9732C35.967 98.5173 35.8564 98.1789 35.6354 97.9578C35.4282 97.723 35.0345 97.5641 34.4543 97.4812C33.8879 97.3983 33.0175 97.3569 31.8433 97.3569H28.9837V100.631H31.8433ZM53.263 103.097H46.5076C46.6181 103.705 46.8875 104.202 47.3158 104.589C47.7579 104.962 48.3795 105.148 49.1808 105.148C49.761 105.148 50.3066 105.038 50.8178 104.817C51.3289 104.582 51.7365 104.257 52.0404 103.843C52.966 104.299 54.1955 104.789 55.7289 105.314C55.3006 106.281 54.5201 107.055 53.3873 107.635C52.2683 108.201 50.804 108.485 48.9943 108.485C46.6458 108.485 44.9051 107.946 43.7723 106.868C42.6534 105.777 42.0939 104.347 42.0939 102.579C42.0939 100.852 42.6534 99.4498 43.7723 98.3723C44.8913 97.2947 46.632 96.756 48.9943 96.756C50.4034 96.756 51.6259 96.9908 52.662 97.4605C53.6981 97.9302 54.4925 98.5864 55.0451 99.4291C55.5976 100.258 55.8739 101.211 55.8739 102.289C55.8739 102.648 55.8601 102.917 55.8325 103.097H53.263ZM49.2844 99.885C48.5936 99.885 48.0272 100.016 47.5852 100.279C47.1431 100.541 46.8323 100.9 46.6527 101.356H51.5431C51.3773 100.914 51.1079 100.562 50.7349 100.299C50.3619 100.023 49.8784 99.885 49.2844 99.885ZM63.9888 108.485C61.6265 108.485 59.8859 107.946 58.7669 106.868C57.6617 105.777 57.1092 104.347 57.1092 102.579C57.1092 100.852 57.6617 99.4498 58.7669 98.3723C59.8859 97.2947 61.6265 96.756 63.9888 96.756C65.5775 96.756 66.9037 97.0184 67.9675 97.5434C69.045 98.0545 69.8393 98.7522 70.3505 99.6363C70.8616 100.507 71.1172 101.487 71.1172 102.579C71.1172 104.361 70.5232 105.791 69.3351 106.868C68.1609 107.946 66.3788 108.485 63.9888 108.485ZM64.0717 104.962C64.9697 104.962 65.6397 104.748 66.0818 104.319C66.5238 103.891 66.7449 103.318 66.7449 102.6C66.7449 101.923 66.5238 101.37 66.0818 100.942C65.6397 100.5 64.9697 100.279 64.0717 100.279C63.1738 100.279 62.5176 100.493 62.1031 100.921C61.6887 101.349 61.4815 101.909 61.4815 102.6C61.4815 103.318 61.6887 103.891 62.1031 104.319C62.5176 104.748 63.1738 104.962 64.0717 104.962ZM81.63 96.756C82.528 96.756 83.3361 97.0115 84.0545 97.5227C84.7728 98.0338 85.3323 98.7314 85.7329 99.6156C86.1336 100.486 86.3339 101.446 86.3339 102.496C86.3339 103.532 86.1336 104.513 85.7329 105.438C85.3323 106.35 84.7659 107.089 84.0337 107.656C83.3154 108.208 82.4934 108.485 81.5678 108.485C80.4903 108.485 79.5647 108.264 78.7911 107.821C78.0313 107.366 77.4649 106.668 77.0919 105.729C77.0919 106.516 77.1195 107.78 77.1748 109.521C77.23 111.206 77.2577 112.394 77.2577 113.085H72.5745C72.6574 110.515 72.6988 107.828 72.6988 105.024C72.6988 102.22 72.6574 99.5327 72.5745 96.9632H76.5531L77.1541 99.5534C77.5409 98.5864 78.1211 97.8818 78.8947 97.4398C79.6683 96.9839 80.5801 96.756 81.63 96.756ZM79.4128 104.755C80.0344 104.755 80.5525 104.561 80.9669 104.174C81.3952 103.774 81.6093 103.256 81.6093 102.62C81.6093 101.916 81.4159 101.342 81.0291 100.9C80.6423 100.458 80.1173 100.237 79.4542 100.237C78.6944 100.237 78.1211 100.424 77.7343 100.797C77.3475 101.156 77.1541 101.764 77.1541 102.62C77.1541 103.104 77.2784 103.511 77.5271 103.843C77.7757 104.161 78.0727 104.395 78.4181 104.547C78.7635 104.686 79.095 104.755 79.4128 104.755ZM92.6618 99.9886C92.648 100.817 92.6411 102.088 92.6411 103.801C92.6411 105.86 92.6549 107.352 92.6826 108.277H87.7922L87.8129 105.936C87.8405 103.366 87.8543 101.384 87.8543 99.9886C87.8543 98.6624 87.8405 96.7836 87.8129 94.3522L87.7922 92.1142H92.6826C92.6549 94.0759 92.6411 95.6784 92.6411 96.9217C92.6411 98.3032 92.648 99.3255 92.6618 99.9886ZM105.311 103.097H98.5553C98.6658 103.705 98.9352 104.202 99.3634 104.589C99.8055 104.962 100.427 105.148 101.228 105.148C101.809 105.148 102.354 105.038 102.865 104.817C103.377 104.582 103.784 104.257 104.088 103.843C105.014 104.299 106.243 104.789 107.777 105.314C107.348 106.281 106.568 107.055 105.435 107.635C104.316 108.201 102.852 108.485 101.042 108.485C98.6934 108.485 96.9528 107.946 95.82 106.868C94.701 105.777 94.1415 104.347 94.1415 102.579C94.1415 100.852 94.701 99.4498 95.82 98.3723C96.939 97.2947 98.6796 96.756 101.042 96.756C102.451 96.756 103.674 96.9908 104.71 97.4605C105.746 97.9302 106.54 98.5864 107.093 99.4291C107.645 100.258 107.922 101.211 107.922 102.289C107.922 102.648 107.908 102.917 107.88 103.097H105.311ZM101.332 99.885C100.641 99.885 100.075 100.016 99.6328 100.279C99.1908 100.541 98.8799 100.9 98.7003 101.356H103.591C103.425 100.914 103.156 100.562 102.783 100.299C102.41 100.023 101.926 99.885 101.332 99.885ZM114.006 94.6838C114.006 95.9271 113.736 96.9839 113.198 97.8542C112.673 98.7107 111.982 99.3462 111.125 99.7606C110.476 99.1113 109.924 98.6278 109.468 98.3101C110.835 97.9371 111.685 97.2533 112.016 96.2586H109.157V92.1142H114.006V94.6838ZM122.148 108.485C120.988 108.485 119.807 108.326 118.605 108.008C117.417 107.676 116.298 107.179 115.248 106.516L117.424 103.553C118.059 104.009 118.826 104.368 119.724 104.63C120.622 104.879 121.395 105.003 122.045 105.003C122.666 105.003 123.143 104.92 123.475 104.755C123.82 104.575 123.993 104.347 123.993 104.071C123.993 103.85 123.91 103.677 123.744 103.553C123.578 103.428 123.35 103.366 123.06 103.366C122.881 103.366 122.673 103.373 122.438 103.387C122.217 103.401 122.038 103.415 121.9 103.428C121.181 103.511 120.442 103.553 119.682 103.553C118.453 103.553 117.451 103.325 116.678 102.869C115.918 102.399 115.538 101.639 115.538 100.59C115.538 99.3738 116.111 98.4344 117.258 97.7713C118.405 97.0944 120.09 96.756 122.314 96.756C123.405 96.756 124.504 96.9148 125.609 97.2326C126.728 97.5365 127.716 97.9993 128.572 98.6209L126.189 101.025C125.402 100.61 124.663 100.32 123.972 100.154C123.295 99.9748 122.611 99.885 121.92 99.885C121.437 99.885 121.022 99.9817 120.677 100.175C120.332 100.368 120.159 100.59 120.159 100.838C120.159 101.032 120.228 101.184 120.366 101.294C120.518 101.405 120.712 101.46 120.946 101.46C121.181 101.46 121.506 101.439 121.92 101.398C122.929 101.329 123.682 101.294 124.179 101.294C125.616 101.294 126.728 101.536 127.515 102.019C128.303 102.503 128.696 103.242 128.696 104.237C128.696 105.729 128.116 106.813 126.956 107.49C125.795 108.153 124.193 108.485 122.148 108.485ZM43.0915 129.485C39.9694 129.485 37.6693 128.821 36.1911 127.495C34.7129 126.169 33.9739 124.276 33.9739 121.817C33.9739 119.345 34.7129 117.39 36.1911 115.953C37.6693 114.516 39.9694 113.798 43.0915 113.798C47.4569 113.798 50.3787 115.297 51.8569 118.295C50.6136 118.723 49.1561 119.365 47.4846 120.222C47.0839 119.448 46.4485 118.875 45.5781 118.502C44.7216 118.129 43.8444 117.942 42.9465 117.942C41.6202 117.942 40.6325 118.295 39.9832 118.999C39.3339 119.69 39.0093 120.547 39.0093 121.569C39.0093 122.674 39.3547 123.579 40.0454 124.283C40.7499 124.974 41.8206 125.319 43.2573 125.319C44.4039 125.319 45.3157 125.133 45.9926 124.76C46.6695 124.373 47.1668 123.765 47.4846 122.936C48.6174 123.544 50.0679 124.228 51.8362 124.988C51.1454 126.659 49.9919 127.827 48.3756 128.49C46.7593 129.153 44.9979 129.485 43.0915 129.485ZM61.6036 129.277C61.6865 127.247 61.728 125.375 61.728 123.662C61.728 123.054 61.576 122.57 61.2721 122.211C60.982 121.852 60.609 121.672 60.1531 121.672C59.6696 121.672 59.2552 121.907 58.9098 122.377C58.5782 122.847 58.4125 123.489 58.4125 124.304L58.3917 124.263C58.3917 126.514 58.4194 128.186 58.4746 129.277H53.5221C53.6326 127.288 53.6879 124.594 53.6879 121.196C53.6879 117.797 53.6326 115.104 53.5221 113.114H58.4539L58.4746 119.497L58.4539 120.595C58.7855 119.628 59.2759 118.916 59.9252 118.46C60.5883 117.991 61.3343 117.756 62.1631 117.756C62.992 117.756 63.7104 117.942 64.3182 118.315C64.9261 118.675 65.3819 119.165 65.6859 119.787C66.0036 120.408 66.1625 121.106 66.1625 121.88V124.864C66.1625 126.701 66.197 128.172 66.2661 129.277H61.6036ZM74.6028 129.485C72.2405 129.485 70.4998 128.946 69.3808 127.868C68.2757 126.777 67.7231 125.347 67.7231 123.579C67.7231 121.852 68.2757 120.45 69.3808 119.372C70.4998 118.295 72.2405 117.756 74.6028 117.756C76.1914 117.756 77.5176 118.018 78.5814 118.543C79.6589 119.055 80.4533 119.752 80.9644 120.636C81.4755 121.507 81.7311 122.487 81.7311 123.579C81.7311 125.361 81.1371 126.791 79.949 127.868C78.7748 128.946 76.9927 129.485 74.6028 129.485ZM74.6856 125.962C75.5836 125.962 76.2536 125.748 76.6957 125.319C77.1377 124.891 77.3588 124.318 77.3588 123.6C77.3588 122.923 77.1377 122.37 76.6957 121.942C76.2536 121.5 75.5836 121.279 74.6856 121.279C73.7877 121.279 73.1315 121.493 72.7171 121.921C72.3026 122.349 72.0954 122.909 72.0954 123.6C72.0954 124.318 72.3026 124.891 72.7171 125.319C73.1315 125.748 73.7877 125.962 74.6856 125.962ZM85.9652 116.741C85.0949 116.741 84.4456 116.526 84.0173 116.098C83.6029 115.67 83.3957 115.11 83.3957 114.42C83.3957 113.743 83.6029 113.183 84.0173 112.741C84.4456 112.299 85.0949 112.078 85.9652 112.078C86.7941 112.078 87.4295 112.306 87.8716 112.762C88.3137 113.204 88.5347 113.757 88.5347 114.42C88.5347 115.11 88.3206 115.67 87.8923 116.098C87.4641 116.526 86.8217 116.741 85.9652 116.741ZM83.5614 129.277C83.6581 127.053 83.7065 125.216 83.7065 123.765C83.7065 122.038 83.6512 120.104 83.5407 117.963H88.514C88.4035 120.022 88.3482 121.956 88.3482 123.765C88.3482 125.285 88.3965 127.122 88.4932 129.277H83.5614ZM94.5991 123.62C94.6267 124.325 94.8478 124.891 95.2622 125.319C95.6905 125.748 96.319 125.962 97.1479 125.962C97.6038 125.962 98.0113 125.879 98.3705 125.713C98.7297 125.534 99.0612 125.271 99.3651 124.926C100.539 125.382 101.914 125.775 103.489 126.107C103.033 127.171 102.259 127.999 101.168 128.594C100.09 129.188 98.6882 129.485 96.9614 129.485C94.6544 129.485 92.9482 128.946 91.8431 127.868C90.7379 126.791 90.1853 125.375 90.1853 123.62C90.1853 121.866 90.7379 120.45 91.8431 119.372C92.9482 118.295 94.6544 117.756 96.9614 117.756C98.6882 117.756 100.09 118.053 101.168 118.647C102.259 119.241 103.033 120.07 103.489 121.134C102.259 121.396 100.885 121.79 99.3651 122.315C99.0612 121.969 98.7297 121.714 98.3705 121.548C98.0113 121.368 97.6038 121.279 97.1479 121.279C96.319 121.279 95.6905 121.493 95.2622 121.921C94.8478 122.349 94.6267 122.916 94.5991 123.62ZM116.005 124.097H109.25C109.361 124.705 109.63 125.202 110.058 125.589C110.5 125.962 111.122 126.148 111.923 126.148C112.503 126.148 113.049 126.038 113.56 125.817C114.071 125.582 114.479 125.257 114.783 124.843C115.708 125.299 116.938 125.789 118.471 126.314C118.043 127.281 117.263 128.055 116.13 128.635C115.011 129.201 113.546 129.485 111.737 129.485C109.388 129.485 107.648 128.946 106.515 127.868C105.396 126.777 104.836 125.347 104.836 123.579C104.836 121.852 105.396 120.45 106.515 119.372C107.634 118.295 109.374 117.756 111.737 117.756C113.146 117.756 114.368 117.991 115.405 118.46C116.441 118.93 117.235 119.586 117.788 120.429C118.34 121.258 118.616 122.211 118.616 123.289C118.616 123.648 118.603 123.917 118.575 124.097H116.005ZM112.027 120.885C111.336 120.885 110.77 121.016 110.328 121.279C109.886 121.541 109.575 121.9 109.395 122.356H114.286C114.12 121.914 113.85 121.562 113.477 121.299C113.104 121.023 112.621 120.885 112.027 120.885Z" fill="#141414"/>
</g>
<defs>
<clipPath id="clip0_3777_2609">
<rect width="150" height="150" fill="white"/>
</clipPath>
<clipPath id="clip1_3777_2609">
<rect x="12" y="12" width="126" height="126" rx="24" fill="white"/>
</clipPath>
<clipPath id="clip2_3777_2609">
<rect width="86" height="103" fill="white" transform="translate(32 16)"/>
</clipPath>
</defs>
</svg>
